<?xml version="1.0" encoding="utf-8"?>
<!DOCTYPE svg PUBLIC "-//W3C//DTD SVG 20010904//EN" "http://www.w3.org/TR/2001/REC-SVG-20010904/DTD/svg10.dtd">
<svg version="1.0" xmlns="http://www.w3.org/2000/svg" width="671px" height="343px" viewBox="0 0 671 343" preserveAspectRatio="xMidYMid meet">
 <g fill="#ffffff">
  <path d="M0 171.5 l0 -171.5 335.5 0 335.5 0 0 171.5 0 171.5 -335.5 0 -335.5 0 0 -171.5z m628 123.7 c0 -1 -12.7 -10.7 -20.3 -15.5 -17.2 -11 -52.9 -25.6 -79.4 -32.7 l-4.3 -1.1 0 -21.2 0 -21.3 4.2 -1.9 c6.3 -2.9 9.8 -8.5 11 -17.6 0.7 -5.3 0.7 -8.2 -0.1 -10.2 -1.9 -4.7 -3.1 -2 -3.1 6.8 0 6.1 -0.5 9.6 -2 12.9 -1.8 4.4 -2.1 4.6 -5.9 4.6 l-4 0 -0.3 -13.6 c-0.3 -11.9 -0.5 -13.8 -2.1 -14.8 -1.5 -0.9 -2.1 -0.7 -3.4 0.9 -1.3 1.7 -1.4 5.2 -0.9 25.8 l0.5 23.7 -3.9 0 c-3.4 0 -4.2 -0.4 -5.6 -3.2 -1.1 -2.1 -1.9 -6.7 -2.2 -12.8 -0.5 -11 -1.5 -14 -3.1 -9.7 -1.4 3.6 -1.4 9.2 0 15.5 1.3 6.5 6.7 12.9 11.4 13.8 l3.5 0.6 0 9.4 c0 11.3 1.4 10.8 -18.2 6.5 -17.5 -3.8 -42 -7.8 -63.8 -10.5 l-17.5 -2.2 -0.6 -10.4 c-0.4 -5.8 -1.4 -22.6 -2.3 -37.5 -0.9 -14.8 -1.9 -30.5 -2.2 -34.7 l-0.7 -7.8 5.4 0 c5.9 -0.1 9.2 -2 10.8 -6.3 1.1 -2.8 -1.8 -8.7 -4.4 -8.7 -1.2 0 -1.5 -1.5 -1.5 -7.5 0 -6.3 0.3 -7.7 1.8 -8.1 0.9 -0.3 2.8 -1.1 4.1 -1.7 3.1 -1.5 20 -1.5 22.6 0 3.1 1.7 29.1 4.6 34.3 3.8 8.6 -1.3 9.2 -2.5 3.4 -7.6 -5.9 -5.2 -7.6 -6.4 -11.3 -8.5 -1.9 -1 -3.6 -2.2 -3.9 -2.6 -0.3 -0.3 -6.6 -3.6 -14 -7.3 -7.4 -3.7 -14.2 -7 -15 -7.4 -1.1 -0.6 -1.6 -3.5 -2.1 -12.2 -0.6 -11.8 -1.1 -13.5 -7.2 -25.8 -4.7 -9.4 -15.1 -19.7 -25.2 -24.8 -4.4 -2.2 -10.4 -4.6 -13.3 -5.2 -6.6 -1.4 -18.2 -1.4 -24.1 0 -13 3 -28.3 13.6 -35.8 25.1 -2.3 3.3 -3.1 3.8 -6.5 3.8 -2.2 0 -4.7 -0.4 -5.6 -0.9 -1 -0.5 -6.7 -1.7 -12.7 -2.6 -6.1 -0.9 -12.4 -2.1 -14.2 -2.6 -1.7 -0.5 -7 -1 -11.6 -1 -6.6 -0.1 -9.1 0.3 -11.2 1.7 l-2.8 1.8 5.8 5.3 c3.2 2.9 6.1 5.3 6.6 5.3 0.4 0 1.4 0.6 2.1 1.3 1.7 1.7 20.3 11.9 24.8 13.7 5.6 2.2 7.6 3.8 11.9 9.4 5 6.5 5.4 10.2 1.3 14.4 -2 2 -4.2 3.1 -7.3 3.5 -4.6 0.6 -9.9 5 -9.9 8.3 0 1.5 5.7 7.4 7.2 7.4 0.5 0 0.8 1.6 0.8 3.6 0 3.2 -1.2 4.9 -10.7 15.2 -5.9 6.5 -11 11.9 -11.3 12.2 -0.5 0.4 -61.7 67.5 -79.2 87 -5.5 6 -6.8 8.1 -6.8 10.7 0 2.7 -0.4 3.4 -2.7 3.9 -1.6 0.3 -3.9 1 -5.3 1.5 -1.4 0.4 -7.2 1.8 -13 2.9 -13.7 2.8 -36 8.3 -48.1 12.1 -5.3 1.6 -11 2.9 -12.8 2.9 l-3.1 0 0 -11.8 c0 -11.3 0.1 -11.9 2.3 -13 l2.2 -1.1 -2.2 0 c-2.2 -0.1 -2.3 -0.5 -2.3 -8 0 -7.5 -1 -10.6 -2.6 -8 -0.4 0.6 -0.6 7.8 -0.5 15.9 0.2 13.6 0.1 14.9 -1.6 15.3 -1.4 0.4 -1.3 0.5 0.5 0.6 2 0.1 2.2 0.6 2.2 6.5 l0 6.3 -8.7 3.3 c-21.4 7.9 -48.4 22.9 -59.3 32.8 l-4.5 4.1 289.8 0.1 c159.3 0 289.7 -0.4 289.7 -0.8z"/>
 </g>
 <g fill="#eeeef0">
  <path d="M46.8 291.9 c4 -3.8 11.4 -9.7 16.5 -13.1 10.3 -6.8 32.7 -17.9 46 -22.8 8.6 -3.2 8.7 -3.3 8.7 -6.6 0 -2.7 -0.4 -3.4 -1.9 -3.4 -1 0 -3 -1.2 -4.4 -2.6 -5.1 -5 -6 -21.3 -1.3 -22.2 2.9 -0.6 3.8 1.2 4 8 0.1 3.4 0.8 7.2 1.5 8.3 1 1.6 1.1 -0.7 0.7 -12.7 -0.4 -13.2 -0.3 -15 1.4 -17 1.5 -1.9 2.2 -2.1 4.6 -1.3 2.8 1 2.9 1.3 3.4 9.5 0.6 10.1 2.1 9.3 3 -1.5 0.5 -7.6 2.1 -9.2 5.5 -5.9 1.4 1.5 1.7 3 1.2 8.3 -0.5 7.6 -3 12.5 -6.9 14.2 -2.8 1.1 -2.8 1.3 -2.8 10.1 0 6.8 0.3 8.9 1.3 8.5 8.2 -3.1 39.6 -11.2 56.7 -14.7 10.1 -2 15.2 -3.3 19.5 -5.1 1.9 -0.7 1.9 -0.8 -0.3 -0.8 -2.2 -0.1 -2 -0.5 2.4 -5.8 3.6 -4.6 78.5 -87.1 84.6 -93.3 0.7 -0.8 6.3 -6.8 12.2 -13.3 l10.9 -11.8 -2.3 -1.6 c-4.9 -3.5 -6 -5.2 -6 -9.8 0 -6.2 3.7 -10.4 9.9 -11.2 3.1 -0.4 5.3 -1.5 7.3 -3.5 l2.9 -2.9 -2.3 -3.2 c-4 -5.6 -9.2 -10.2 -13.3 -11.6 -4.5 -1.6 -23.3 -11.8 -25.3 -13.8 -0.7 -0.7 -1.7 -1.3 -2.1 -1.3 -1.6 0 -12 -10.5 -12.6 -12.7 -1 -3.7 3.4 -6.9 10.3 -7.7 8.7 -0.9 37.3 3 49.8 6.9 1.6 0.5 2.6 -0.2 4.6 -3.2 9.4 -14.2 29.2 -26.2 43.6 -26.3 2.5 0 3.2 0.4 3.2 2 0 1.4 -0.7 2 -2.4 2 -3.5 0 -15.8 4.3 -21.1 7.4 -5.8 3.5 -15.8 12.8 -19.7 18.4 -3.6 5.2 -3 5.2 -23.3 0.8 -19.1 -4.1 -39.5 -4.7 -39.5 -1.2 0 3.4 14.6 13.4 33.2 22.7 6.8 3.4 12.4 6.5 12.6 7 0.2 0.4 2.1 3 4.3 5.7 5.1 6.5 5.3 10.5 0.6 15 -2.4 2.4 -4.2 3.2 -6.8 3.2 -3.7 0 -7.3 2 -8.9 5 -1.3 2.5 0.4 6.2 3.8 8.2 2.3 1.4 3.1 1.4 5.1 0.4 2.9 -1.6 5 -5.2 5.1 -8.6 0 -3.6 6.7 -10 10.4 -10 1.6 0 4.5 1.2 6.5 2.7 7.6 5.9 22.2 13.5 32.6 17.1 7.6 2.5 24.6 5.9 35 6.9 l8 0.8 0.3 7.9 c0.2 6.2 -0.1 8.2 -1.3 9.7 -2.1 2.2 -1.3 5.2 2.2 7.9 3.4 2.6 5.4 2.5 8.7 -0.5 3.3 -3 3.3 -5.9 0.1 -9.1 -1.4 -1.4 -2.5 -3.1 -2.5 -3.9 0 -0.8 -0.5 -1.5 -1 -1.5 -0.7 0 -1 -2.5 -0.8 -6.6 l0.3 -6.6 8 -2.1 8 -2 14.5 2.8 c17.9 3.4 33.5 4.4 37.4 2.3 l2.7 -1.4 -5.4 -5 c-2.9 -2.7 -6.9 -5.8 -8.8 -6.8 -1.9 -1.1 -3.6 -2.2 -3.9 -2.6 -0.3 -0.3 -7.7 -4.3 -16.5 -8.7 -16 -8 -16 -8 -16.3 -11.7 -0.3 -3 0 -3.6 1.7 -3.6 1.2 0 2.1 0.8 2.3 2.1 0.2 1.2 1 2.5 1.8 3 0.8 0.4 7.6 3.7 15 7.4 7.4 3.7 13.7 7 14 7.3 0.3 0.4 2 1.6 3.9 2.6 4.4 2.4 6.5 4.1 11.8 9.2 4.2 4.1 5.3 7.3 3.4 10.2 -1.1 1.8 -7.3 3.1 -14.1 3.2 -7.8 0 -29.9 -2.8 -33.5 -4.2 -3.8 -1.6 -13.5 -1.6 -16.6 -0.1 -1.3 0.6 -3.2 1.4 -4.1 1.7 -1.4 0.4 -1.8 1.6 -1.8 5 0 3.5 0.4 4.5 2 4.9 1.2 0.3 2.9 2.4 4 5 1.9 4.2 1.9 4.7 0.4 8.2 -2.3 5.6 -5 7.4 -11.2 7.5 l-5.2 0 0.5 3.8 c0.3 2 1.2 16.3 2.1 31.7 0.9 15.4 1.9 32.7 2.3 38.5 l0.6 10.4 18 2.3 c20.4 2.5 48.8 7.2 64.8 10.7 l10.7 2.3 0 -6.2 0 -6.3 -3.5 -0.6 c-4.9 -1 -10.1 -7.3 -11.6 -14.4 -1.3 -6.6 -0.9 -20.6 0.8 -22.3 1.8 -1.8 6.4 -1.4 7.6 0.7 0.6 1.1 1.1 6 1.2 10.9 0 6.5 0.6 9.9 1.8 12.3 1 1.7 2.1 3.2 2.6 3.2 0.4 0 0.5 -10.7 0.3 -23.9 -0.5 -23.3 -0.4 -23.9 1.7 -26 5.7 -5.7 13.3 0.4 11.6 9.5 -0.8 4.4 -3.5 4.7 -3.5 0.3 0 -6.3 -4.3 -9.5 -5.6 -4.2 -0.4 1.4 -0.4 12.9 0 25.5 l0.7 22.8 -3.8 0.1 -3.8 0.1 3.7 1.5 c3.7 1.5 3.7 1.6 4 8.2 0.2 5.3 0.6 6.6 2.1 6.9 1.6 0.3 1.7 -1 1.7 -17.6 l0 -17.9 4.3 -1.3 4.2 -1.4 -4 -0.6 c-3.8 -0.5 -4 -0.7 -4.3 -4.2 -0.3 -3.3 0 -3.8 1.7 -3.8 1.4 0 2.1 0.6 2.1 2 0 3.2 2 2.3 3.8 -1.7 1 -2.3 1.9 -7.6 2.2 -13.2 0.4 -8.1 0.8 -9.6 2.6 -10.8 1.9 -1.2 2.4 -1.1 4.5 0.5 1.9 1.6 2.4 3.1 2.7 8.3 0.9 14.1 -3.4 24.6 -11.6 28.4 l-4.2 1.9 0 18.3 0 18.2 4.3 1.1 c8.8 2.4 29.6 9.4 40.7 13.7 27 10.7 50.4 24.7 61.4 37.1 l3.8 4.2 -298.8 0 -298.9 -0.1 7.3 -7z m74.9 -72.6 c-0.1 -4.3 -0.3 -1 -0.3 7.2 0 8.3 0.2 11.8 0.3 7.8 0.2 -4 0.2 -10.7 0 -15z m383.3 -15.8 c-0.4 -7.7 -0.8 -9.3 -1.4 -7.2 -0.9 2.9 -0.2 12.9 1 16.1 1 2.7 1.1 1.7 0.4 -8.9z m33.9 -24 c0 -2.7 -0.4 -5.7 -0.9 -6.5 -0.7 -1.1 -1 0.4 -1 5 0 3.6 -0.2 8.3 -0.5 10.5 l-0.5 4 1.4 -4 c0.8 -2.2 1.5 -6.2 1.5 -9z"/>
  <path d="M441.5 55.3 c-2.4 -16.5 -15.5 -34.2 -30.9 -42 -6.8 -3.5 -15.3 -6.3 -18.8 -6.3 -2.1 0 -2.8 -0.5 -2.8 -2 0 -2.4 3 -2.6 11.2 -0.9 21.8 4.6 43.2 28 45.4 49.8 0.6 5.7 0.5 6.1 -1.3 6.1 -1.7 0 -2.2 -0.9 -2.8 -4.7z"/>
 </g>
 <g fill="#bdbdbd">
  <path d="M118 249.1 c0 -2.3 -0.8 -3.4 -3.5 -5 -4.3 -2.5 -6.5 -7.2 -6.5 -14 0 -6.2 0.7 -8.1 3.1 -8.1 1.6 0 1.9 0.8 1.9 5.5 0 5.9 2.1 12.5 4 12.5 0.8 0 1.1 -4.7 0.9 -15.4 -0.1 -8.4 0.1 -15.9 0.5 -16.5 1.1 -1.7 5.3 -1.3 6 0.5 0.3 0.9 0.6 5.1 0.6 9.5 0 4.4 0.4 7.9 1 7.9 1.8 0 3.3 -4.4 3.5 -10.4 0.2 -3.4 0.3 -6.4 0.4 -6.8 0.2 -1.5 3.9 -0.8 4.5 0.8 0.9 2.4 0.7 8.5 -0.5 12.9 -1.2 4.5 -3.4 7.3 -6.5 8.5 -1.8 0.7 -2.2 1.9 -2.7 10.1 -0.7 9.3 -1.4 10.9 -4.9 10.9 -1.3 0 -1.8 -0.8 -1.8 -2.9z"/>
  <path d="M519 241.1 c-2.3 -0.6 -2.5 -1.2 -2.8 -7.1 l-0.3 -6.5 -5.2 -2.5 c-7.6 -3.6 -9.9 -8.3 -10.5 -21.1 -0.4 -8 -0.2 -10.3 1.2 -12.4 1.9 -2.9 2.5 -3 5 -1.2 1.4 1.1 1.8 3 1.9 10.7 0.2 6.1 0.8 10.6 1.7 12.4 1.5 2.9 4.5 5.4 5.4 4.5 0.3 -0.2 0.2 -10.7 -0.2 -23.2 -0.7 -22.3 -0.4 -26.3 2.1 -27.9 2.2 -1.4 5.7 -0.8 7.7 1.2 1.9 1.9 2.1 3.2 1.9 14.8 -0.1 13.9 0.7 15.7 4.5 9.3 1.6 -2.8 2 -5.4 2.1 -13 0.1 -8.4 0.4 -9.6 2.2 -10.8 1.9 -1.3 2.4 -1.2 4.2 0.6 1.8 1.8 2.1 3.3 2.1 9.9 0 14 -4.3 23 -12.1 25.3 l-3.9 1.2 -0.2 18.1 c-0.3 17.3 -0.4 18.1 -2.3 18.3 -1.1 0.1 -3.1 -0.2 -4.5 -0.6z"/>
  <path d="M283 190.5 c0 -1 0.7 -1.5 1.8 -1.3 2.1 0.4 1.9 2.2 -0.2 2.6 -1 0.2 -1.6 -0.3 -1.6 -1.3z"/>
  <path d="M350.8 177.8 c-1.1 -2.4 -2.2 -3.3 -4.2 -3.4 -1.4 -0.1 -3.3 -0.7 -4 -1.3 -2 -1.7 -4.8 -7.9 -4.1 -9.1 1.1 -1.7 2.2 -1.1 3.5 2 1.3 3.1 3.7 5.6 4.6 4.8 0.3 -0.3 -1.2 -3.9 -3.2 -8.1 -3.5 -7 -4 -10.7 -1.4 -10.7 0.6 0 2 2 3.2 4.5 1.2 2.5 2.6 4.5 3 4.5 1.3 0 0.9 -2.9 -0.8 -6.2 -2.4 -4.6 -0.1 -6.1 2.5 -1.7 2.4 3.9 2.7 9.1 0.7 10.8 -1.2 1.1 -1 2.2 1.5 7.8 2.8 6.2 3.1 9.3 1.1 9.3 -0.4 0 -1.5 -1.5 -2.4 -3.2z"/>
  <path d="M378.5 155.1 c-0.6 -1.1 0.9 -2.3 1.9 -1.4 0.9 0.9 0.7 2.3 -0.3 2.3 -0.6 0 -1.2 -0.4 -1.6 -0.9z"/>
  <path d="M416.3 138 c-1.7 -1 -3.7 -2.8 -4.2 -3.9 -1.6 -3 -1.3 -9.7 0.4 -11.1 2.1 -1.8 1.7 -11.4 -0.5 -11.7 -6.8 -0.9 -9 -1.5 -9 -2.8 0 -1.2 1.5 -1.5 6.4 -1.5 3.6 0 6.7 0.4 7 0.9 1.2 1.9 1.9 16.1 0.9 16.1 -1.6 0 -2.3 4 -1.6 8.4 l0.6 3.8 4.4 -0.5 c4.6 -0.5 6.8 -2.3 7.9 -6.5 0.5 -1.7 0.1 -2.7 -1.5 -3.8 -1.1 -0.8 -2.1 -2.2 -2.1 -3 0 -0.8 -0.6 -1.4 -1.4 -1.4 -0.9 0 -1.5 -1.8 -2 -5.2 -1.1 -9.6 -1 -9.8 2.9 -9.8 3.6 0 4.7 1.3 1.9 2.4 -2.7 1 -1.3 9.5 1.9 11.8 6 4.4 5.6 13.9 -0.7 17.8 -4.2 2.5 -7.2 2.5 -11.3 0z"/>
  <path d="M478.8 111.3 c-1 -0.2 -1.8 -1.1 -1.8 -1.9 0 -1 1.3 -1.4 5 -1.4 3.6 0 5 0.4 5 1.4 0 2 -4.1 3 -8.2 1.9z"/>
  <path d="M458.1 109 c-5.7 -1.1 -12.4 -2.3 -14.9 -2.9 -2.8 -0.6 -5.5 -0.6 -6.9 0 -3.7 1.4 -5.3 1.1 -5.3 -1.1 0 -2.7 5.8 -3.6 14 -2.1 3.6 0.6 11.3 1.9 17.3 2.8 9 1.4 10.7 2 10.7 3.5 0 2.2 -1.3 2.2 -14.9 -0.2z"/>
  <path d="M488 109 c0 -1.3 0.7 -2 2 -2 1.6 0 2 -0.7 2 -3.5 0 -3.2 -0.2 -3.5 -3.1 -3.5 -2.2 0 -3.2 -0.5 -3.6 -2 -0.3 -1.1 -1.4 -2 -2.4 -2 -1.1 0 -1.9 -0.4 -1.9 -1 0 -0.5 -0.7 -1 -1.5 -1 -0.8 0 -1.5 -0.7 -1.5 -1.5 0 -0.9 -0.9 -1.5 -2.4 -1.5 -1.4 0 -3.1 -0.6 -3.8 -1.3 -0.7 -0.6 -3.7 -2.3 -6.5 -3.6 -2.9 -1.4 -5.3 -3 -5.3 -3.8 0 -0.7 -1.1 -1.3 -2.5 -1.3 -2.7 0 -11.5 -4 -11.5 -5.2 0 -0.4 -0.9 -0.8 -2 -0.8 -1.6 0 -2 -0.7 -2 -3.5 0 -2.9 0.4 -3.5 2 -3.5 1.4 0 2 0.6 1.8 1.6 -0.2 1.2 3.8 3.7 14.7 9.3 16.8 8.5 24.4 13.2 30.5 18.8 6.6 5.8 7.3 9.9 2.4 12.2 -3.7 1.6 -5.4 1.4 -5.4 -0.9z"/>
  <path d="M390.3 108.8 c-2.6 -0.5 -4.3 -1.5 -4.3 -2.4 0 -1.6 2.2 -1.7 9.4 -0.8 3.6 0.5 4.6 1.1 4.6 2.5 0 2.1 -2.6 2.3 -9.7 0.7z"/>
  <path d="M379 106.4 c-0.8 -0.3 -4.4 -1.4 -8 -2.6 -10.4 -3.3 -25.5 -11.1 -33.1 -17 l-3.4 -2.7 -3.7 3.6 c-2.1 2.1 -3.8 4.3 -3.8 5 0 0.7 -0.7 1.3 -1.5 1.3 -1 0 -1.5 -1 -1.5 -3.3 0 -5 5.2 -9.7 10.8 -9.7 2.9 0 4.5 0.5 4.8 1.5 0.4 0.8 1.1 1.5 1.8 1.5 1.5 0.1 5.6 3.6 5.6 4.9 0 0.6 1 1.1 2.3 1.1 2.5 0.1 5.7 2.2 5.7 3.9 0 0.6 1.6 1.1 3.5 1.1 2.2 0 3.8 0.6 4.1 1.5 0.4 0.8 1.1 1.5 1.8 1.5 0.6 -0.1 5.3 1.2 10.3 2.7 7.1 2.1 9.3 3.2 9.3 4.6 0 1.7 -1.8 2.1 -5 1.1z"/>
  <path d="M316 102 c0 -1.3 0.7 -2 1.9 -2 1 0 2.1 -0.7 2.5 -1.5 0.3 -0.8 1.7 -1.5 3.2 -1.5 2 0 2.5 0.4 2 1.6 -0.3 0.9 -0.6 1.7 -0.6 2 0 0.7 -5.9 3.4 -7.5 3.4 -0.8 0 -1.5 -0.9 -1.5 -2z"/>
  <path d="M322.7 71.9 c-5.2 -6.8 -5.5 -7.9 -2.3 -7.9 2.1 0 2.6 0.5 2.6 2.4 0 1.8 0.6 2.5 2.3 2.8 1.8 0.2 2.3 1 2.5 4.1 0.2 2 0 3.7 -0.5 3.6 -0.4 0 -2.5 -2.3 -4.6 -5z"/>
  <path d="M336 28 c3.1 -4.4 4 -4.5 4 -0.6 0 3.3 -0.2 3.6 -3.1 3.6 l-3 0 2.1 -3z"/>
  <path d="M279 28.6 c0 -1.3 2.8 -2.6 5.8 -2.6 0.6 0 1.2 0.9 1.2 2 0 1.6 -0.7 2 -3.5 2 -2.3 0 -3.5 -0.5 -3.5 -1.4z"/>
  <path d="M351 14 c0 -1.1 14 -8 16.4 -8 0.9 0 1.6 0.8 1.6 2 0 1.5 -0.7 2 -2.5 2 -1.4 0 -2.5 0.5 -2.5 1 0 0.6 -0.7 1 -1.6 1 -0.8 0 -2.2 0.7 -3 1.5 -1.7 1.6 -8.4 2.1 -8.4 0.5z"/>
  <path d="M395 6 c0 -2.1 1 -2.4 4.8 -1.4 3.6 1 2.7 3.4 -1.3 3.4 -2.8 0 -3.5 -0.4 -3.5 -2z"/>
  <path d="M375 5.6 c0 -1.3 2.8 -2.6 5.8 -2.6 0.6 0 1.2 0.9 1.2 2 0 1.6 -0.7 2 -3.5 2 -2.3 0 -3.5 -0.5 -3.5 -1.4z"/>
 </g>
 <g fill="#a391c0">
  <path d="M414.5 136.6 c-2.8 -2.9 -4.1 -8.6 -2.6 -11.5 1.8 -3.3 3.1 -2.5 3.1 2.2 0 3.6 0.5 4.5 3 6.2 3.5 2.3 4 5.5 1 5.5 -1.2 0 -3.2 -1.1 -4.5 -2.4z"/>
  <path d="M428 125 c0 -2.6 -0.3 -3 -2.9 -3 -2.7 0 -2.9 -0.3 -3.6 -5.5 -1.2 -9.6 -0.5 -10.8 7.3 -12.8 8.5 -2.2 12.1 -2.1 24 0.2 5.4 1.1 12.7 2.3 16.5 2.6 5.7 0.6 6.7 1 6.7 2.6 0 1.1 -0.7 1.9 -1.5 1.9 -2.1 0 -25.7 -3.8 -31.2 -5.1 -3.5 -0.7 -5.7 -0.6 -9.2 0.5 -2.5 0.8 -5.8 1.7 -7.3 2 -2.4 0.6 -2.6 0.9 -2.1 4.8 0.4 3.1 1.5 5.3 3.9 7.8 3.9 4.1 4.4 7 1.4 7 -1.6 0 -2 -0.7 -2 -3z"/>
  <path d="M414.6 117.8 c-0.3 -1.3 -0.6 -3.4 -0.6 -4.6 0 -1.5 -0.7 -2.6 -2 -2.9 -3.4 -0.9 -2.4 -3.3 1.4 -3.3 3.2 0 3.4 0.2 4 4.6 0.3 2.6 0.6 5.5 0.6 6.5 0 2.7 -2.6 2.4 -3.4 -0.3z"/>
  <path d="M486 109.2 c0 -1.7 0.8 -2.2 4.5 -2.8 2.5 -0.3 4.9 -0.4 5.2 0 1.2 1.2 -2.3 3.7 -6 4.3 -3.3 0.5 -3.7 0.3 -3.7 -1.5z"/>
  <path d="M389.7 108.4 c-17.5 -3.2 -37.5 -11.5 -49.4 -20.4 -2.9 -2.2 -5.6 -4 -6.1 -4 -0.4 0 -2.2 1.5 -4 3.3 -2.2 2.3 -3.2 4.3 -3.2 6.4 0 4.3 -4.2 9.1 -8.7 9.9 -10 1.9 -16.6 -10.5 -9.4 -17.7 3.5 -3.4 7.1 -3.9 7.1 -0.9 0 1.1 -0.4 2 -0.8 2 -1.9 0 -5.2 4.3 -5.2 6.6 0 4.1 4.1 6.9 8.4 5.8 2.3 -0.6 5.6 -6.8 5.6 -10.7 0 -3.7 5.9 -8.7 10.3 -8.7 2.6 0 3.7 0.4 3.7 1.5 0 0.8 0.9 1.5 2 1.5 1.1 0 2 0.5 2 1 0 0.6 0.4 1 0.9 1 0.9 0 16.3 9 17.1 10 0.3 0.4 1.6 1 3 1.3 1.4 0.3 6.2 1.9 10.7 3.6 9 3.3 22.2 6.1 28.9 6.1 3.7 0 4.4 0.3 4.4 2 0 1.7 -0.6 2 -4.7 1.9 -2.7 -0.1 -8.3 -0.8 -12.6 -1.5z"/>
  <path d="M491 103 c0 -1.3 -0.7 -2 -2 -2 -1.3 0 -2 -0.7 -2 -2 0 -1.5 -0.7 -2 -2.5 -2 -1.4 0 -2.5 -0.4 -2.5 -1 0 -0.5 -0.7 -1 -1.5 -1 -0.8 0 -1.5 -0.4 -1.5 -1 0 -0.5 -0.7 -1 -1.5 -1 -0.8 0 -1.5 -0.9 -1.5 -2 0 -1.6 -0.7 -2 -3.5 -2 -3.1 0 -3.5 -0.3 -3.5 -2.5 0 -1.4 0.3 -2.5 0.6 -2.5 1.8 0 17.1 10 21.4 14 5.6 5.1 6.2 7 2.5 7 -1.8 0 -2.5 -0.5 -2.5 -2z"/>
  <path d="M317 84.5 c0 -0.8 0.5 -1.5 1.2 -1.5 0.6 0 2.2 -1 3.5 -2.2 l2.3 -2.1 0 3.6 c0 3.6 -0.1 3.7 -3.5 3.7 -2.4 0 -3.5 -0.5 -3.5 -1.5z"/>
  <path d="M457.2 82.1 c-0.8 -0.4 -1.2 -1.8 -1 -3 l0.3 -2.1 4.3 2.1 c2.3 1.2 4.2 2.5 4.2 3 0 1.1 -6.1 1.2 -7.8 0z"/>
  <path d="M325.6 76.7 c0.3 -0.8 -1.1 -3.3 -3.1 -5.7 -1.9 -2.3 -3.9 -4.8 -4.3 -5.5 -0.4 -0.7 -6.3 -4.1 -13.2 -7.5 -26 -13 -39.2 -24.3 -33.7 -28.9 0.8 -0.6 2.8 -1.4 4.5 -1.7 2.7 -0.6 3.2 -0.4 3.2 1.4 0 1.2 -0.9 2.2 -2.2 2.5 l-2.2 0.6 2.4 2.7 c1.4 1.4 4.8 4.2 7.5 6.2 2.8 2 5.2 3.9 5.5 4.2 0.3 0.3 7 3.9 15 8 14.4 7.3 17 9 17 10.8 0 0.6 0.7 1.2 1.5 1.6 0.8 0.3 1.5 1.7 1.5 3.1 0 1.8 0.5 2.5 2 2.5 1.6 0 2 0.7 2 3.5 0 2.8 -0.4 3.5 -2 3.5 -1.2 0 -1.7 -0.5 -1.4 -1.3z"/>
  <path d="M442.6 73.8 c-0.3 -1.3 -0.6 -5.1 -0.6 -8.5 0 -3.4 -0.5 -8.6 -1.1 -11.5 -1.1 -5.4 -6.8 -19 -8.1 -19.6 -0.5 -0.2 -0.8 -1 -0.8 -1.8 0 -0.8 -0.4 -1.4 -1 -1.4 -0.5 0 -1 -0.5 -1 -1 0 -0.6 -1.8 -2.6 -4 -4.6 -2.2 -2 -4 -4.3 -4 -5 0 -0.8 -0.6 -1.4 -1.4 -1.4 -0.7 0 -3.9 -1.6 -7.1 -3.5 -3.2 -1.9 -8.1 -4.2 -10.9 -5.2 -6.1 -2.1 -18.7 -2.4 -19.3 -0.5 -0.3 0.6 -1.2 1.2 -2.1 1.2 -0.9 0 -3.5 1.6 -5.7 3.5 -2.2 1.9 -4.5 3.9 -5.1 4.4 -0.7 0.5 -3.5 2.2 -6.4 3.8 -2.9 1.5 -5.6 3.6 -6.1 4.5 -0.5 1 -1.6 1.8 -2.4 1.8 -0.8 0 -1.5 0.5 -1.5 1 0 0.6 -0.7 1 -1.5 1 -0.8 0 -1.5 0.4 -1.5 0.9 0 0.5 -1.3 1.4 -2.9 1.9 -1.5 0.5 -4 2.2 -5.4 3.6 -2 2 -3.6 2.6 -7.1 2.6 -2.8 0 -5.1 -0.6 -6.1 -1.6 -1.6 -1.7 -27.3 -7.4 -33.2 -7.4 -2.6 0 -3.3 -0.4 -3.3 -2 0 -1.2 0.7 -2 1.8 -2 3.3 0 20.8 2.9 29 4.8 l8.2 1.9 3.5 -4.8 c21.3 -28.9 61.2 -34 88.9 -11.4 6.4 5.3 14.4 16.5 17.4 24.8 2.7 7.3 4.6 18.6 4 24.5 -0.4 4.5 -0.3 5.1 1.9 6.1 3.4 1.5 2.8 3.1 -1.1 3.1 -2.6 0 -3.5 -0.5 -4 -2.2z"/>
  <path d="M280 28.6 c0 -1.7 4.2 -2.8 7.5 -2 4.6 1.1 3 3.4 -2.5 3.4 -3.6 0 -5 -0.4 -5 -1.4z"/>
 </g>
 <g fill="#9d89bf">
  <path d="M413.6 135.1 c-2.2 -2.5 -2.3 -9.3 -0.1 -12.7 1.2 -1.9 1.5 -3.6 1 -6.5 -0.6 -3.6 -0.5 -3.9 1.5 -3.9 2.2 0 2.2 0.2 1.5 6.8 -0.4 3.7 -1.1 6.8 -1.6 7 -0.5 0.2 -0.6 2.8 -0.3 5.8 0.4 3 0.5 5.4 0.2 5.4 -0.3 0 -1.3 -0.9 -2.2 -1.9z"/>
  <path d="M423 119.5 c0 -1.9 0.5 -3.5 1 -3.5 0.6 0 1 0.5 1 1 0 0.6 1.2 2.2 2.8 3.5 l2.7 2.4 -3.7 0.1 c-3.7 0 -3.8 -0.1 -3.8 -3.5z"/>
  <path d="M421 108.5 c0 -3.3 0.2 -3.5 3.5 -3.5 3.9 0 5 2.4 1.5 3.3 -1.1 0.3 -2 1.2 -2 2.1 0 0.9 -0.7 1.6 -1.5 1.6 -1 0 -1.5 -1.1 -1.5 -3.5z"/>
  <path d="M402.8 109.3 c-3.3 -0.8 -2 -3.3 1.7 -3.3 2.8 0 3.5 0.4 3.5 2 0 2 -1.4 2.3 -5.2 1.3z"/>
  <path d="M457.5 108.5 c-0.5 -0.2 -2.7 -0.6 -4.7 -1 -2.4 -0.4 -3.8 -1.1 -3.8 -2 0 -1.7 1.5 -1.8 8.4 -0.9 3.6 0.5 4.6 1.1 4.6 2.5 0 1.8 -1.8 2.3 -4.5 1.4z"/>
  <path d="M377.3 105.3 c-5.5 -1.6 -7.3 -4.3 -2.8 -4.3 5.1 0 11.5 2.3 11.5 4.2 0 2.2 -1.7 2.2 -8.7 0.1z"/>
  <path d="M313.8 103.3 c-3.3 -0.8 -2 -3.3 1.7 -3.3 1.9 0 3.5 -0.4 3.5 -1 0 -0.5 0.7 -1 1.5 -1 1 0 1.6 -1.6 2.1 -5 0.6 -4.3 1 -5 2.9 -5 2.1 0 2.2 0.3 1.4 4.5 -1.1 5.8 -3.3 9.1 -7.1 10.4 -1.7 0.6 -3.4 1 -3.7 1 -0.3 -0.1 -1.4 -0.3 -2.3 -0.6z"/>
  <path d="M490 101 c0 -1.6 0.4 -3 0.9 -3 0.5 0 1.9 1.4 3.1 3 l2.1 3 -3 0 c-2.8 0 -3.1 -0.3 -3.1 -3z"/>
  <path d="M308.8 100.3 c-2.9 -3.4 -3 -5.3 -0.3 -5.3 2.2 0 2.5 0.4 2.5 3.5 0 4 -0.1 4.1 -2.2 1.8z"/>
  <path d="M306 92.5 c0 -2.4 2 -6 4.1 -7.3 1.7 -1.1 1.9 -0.9 1.9 1.8 0 1.6 -0.4 3 -1 3 -0.5 0 -1 0.9 -1 2 0 1.3 -0.7 2 -2 2 -1.1 0 -2 -0.7 -2 -1.5z"/>
  <path d="M337 85 l-3.5 -2.9 3.8 -0.1 c3.5 0 3.7 0.2 3.7 3 0 1.7 -0.1 3 -0.3 3 -0.1 0 -1.8 -1.3 -3.7 -3z"/>
  <path d="M318 84.1 c0 -0.6 0.5 -1.1 1 -1.1 0.6 0 2.4 -1.5 4 -3.2 l3 -3.3 -0.2 4 c-0.3 3.8 -0.4 4 -4 4.3 -2.2 0.2 -3.8 -0.1 -3.8 -0.7z"/>
  <path d="M318.6 65.5 c-0.3 -0.8 -6 -4.2 -12.8 -7.6 -12.8 -6.3 -26.9 -15.2 -30.2 -18.8 -1.9 -2.1 -1.9 -2.1 1.8 -2.1 2.9 0 3.9 0.4 4.3 2 0.3 1.1 1.4 2 2.4 2 1.1 0 1.9 0.5 1.9 1 0 0.6 0.6 1 1.4 1 0.8 0 1.6 0.3 1.8 0.8 0.2 0.4 4.2 2.7 9 5.2 4.8 2.5 8.8 5.1 8.8 5.8 0 0.6 1.1 1.2 2.5 1.2 2.8 0 7.5 2 7.5 3.2 0 0.4 0.9 0.8 2 0.8 1.6 0 2 0.7 2 3.5 0 3.6 -1.3 4.7 -2.4 2z"/>
  <path d="M441 54.5 c0 -4 2.4 -4.9 3.4 -1.2 1 3.7 0.7 4.7 -1.4 4.7 -1.6 0 -2 -0.7 -2 -3.5z"/>
  <path d="M438.2 45.7 c-1.5 -4.1 -1.6 -8.7 -0.2 -8.7 1.3 0 4.9 7.7 5 10.3 0 3.1 -3.5 1.9 -4.8 -1.6z"/>
  <path d="M333.8 41.8 c-4.1 -1.8 -4.8 -2.4 -4.8 -4.9 0 -2.9 2.4 -4.2 3.2 -1.7 0.9 2.5 5.2 1.4 9.2 -2.4 2.3 -2.1 4.7 -3.6 5.3 -3.3 0.7 0.2 1.2 -0.1 1 -0.8 -0.1 -0.7 0.6 -1.1 1.6 -0.9 1 0.2 1.7 -0.3 1.7 -1.4 0 -1 0.5 -1.4 1.5 -1 0.8 0.3 1.8 -0.1 2.2 -0.8 1.1 -1.9 7.9 -7.4 6.9 -5.6 -0.4 0.8 0.1 0.4 1.2 -0.9 1.2 -1.5 2.4 -2.1 3.2 -1.6 0.9 0.5 1.1 0.4 0.6 -0.3 -0.4 -0.7 -0.1 -1.2 0.9 -1.2 1 0 1.3 -0.5 0.9 -1.2 -0.4 -0.6 -0.3 -0.8 0.4 -0.4 0.6 0.3 2.7 -0.9 4.8 -2.8 2 -1.9 4.3 -3.2 5.1 -2.9 0.8 0.3 1.3 0 1.1 -0.8 -0.2 -0.8 0.4 -1.4 1.2 -1.5 0.8 0 2.2 -0.4 3.1 -0.8 2.4 -1 17.3 1.2 23.4 3.5 5.4 2 16.7 8.8 17.9 10.8 0.5 0.7 -0.5 1.1 -2.8 1.1 -2 0 -3.6 -0.4 -3.6 -1 0 -0.5 -0.7 -1 -1.5 -1 -0.8 0 -1.5 -0.4 -1.5 -1 0 -0.5 -0.7 -1 -1.5 -1 -0.8 0 -1.5 -0.4 -1.5 -0.9 0 -0.5 -1.3 -1.1 -2.9 -1.4 -1.6 -0.3 -3.6 -1.4 -4.5 -2.3 -2.7 -2.7 -8.5 -1.3 -15.2 3.7 -5.1 3.8 -17.6 12.4 -22.3 15.4 -0.9 0.6 -1.8 1.2 -2.1 1.5 -0.3 0.3 -4.3 3.1 -9 6.3 -7.6 5.1 -9 5.7 -13.5 5.6 -2.7 0 -7.1 -1 -9.7 -2.1z"/>
  <path d="M433 33 c0 -2.3 -0.4 -3 -2 -3 -1.6 0 -2 -0.7 -2 -3.6 0 -3.1 0.2 -3.5 1.4 -2.4 1.6 1.3 7.6 10.3 7.6 11.3 0 0.4 -1.1 0.7 -2.5 0.7 -2.1 0 -2.5 -0.5 -2.5 -3z"/>
  <path d="M303.3 32.3 c-2.5 -0.3 -3.3 -0.9 -3.3 -2.5 0 -1.8 0.4 -1.9 3.8 -1.4 8.1 1.4 9.2 1.8 9.2 3.2 0 1.4 -2.4 1.6 -9.7 0.7z"/>
  <path d="M273 29.6 c0 -1.3 2.8 -2.6 5.8 -2.6 0.6 0 1.2 0.9 1.2 2 0 1.6 -0.7 2 -3.5 2 -2.3 0 -3.5 -0.5 -3.5 -1.4z"/>
  <path d="M292 29 c0 -2.1 1 -2.4 4.8 -1.4 3.6 1 2.7 3.4 -1.3 3.4 -2.8 0 -3.5 -0.4 -3.5 -2z"/>
 </g>
 <g fill="#9780bc">
  <path d="M413.9 121.5 c2.1 -4.5 4.1 -4.5 4.1 0 0 3.2 -0.3 3.5 -2.9 3.5 l-2.8 0 1.6 -3.5z"/>
  <path d="M472 110.5 c-0.8 -0.2 -3.2 -0.6 -5.2 -1 -2.4 -0.4 -3.8 -1.1 -3.8 -2 0 -1.7 1.1 -1.8 8.8 -0.9 4.2 0.6 5.2 1 5.2 2.5 0 1.8 -1.2 2.1 -5 1.4z"/>
  <path d="M485 109.1 c0 -1.7 0.6 -2.1 3.5 -2.1 2.4 0 3.5 -0.5 3.5 -1.5 0 -0.8 0.9 -1.5 2 -1.5 1.3 0 2 0.7 2 2 0 2.3 -2.1 3.5 -7.3 4.5 -3.3 0.7 -3.7 0.5 -3.7 -1.4z"/>
  <path d="M403.8 109.3 c-1 -0.2 -1.8 -1.1 -1.8 -1.9 0 -1 1.3 -1.4 4.5 -1.4 3.8 0 4.5 0.3 4.5 2 0 1.5 -0.6 2 -2.7 1.9 -1.6 -0.1 -3.6 -0.3 -4.5 -0.6z"/>
  <path d="M392.5 108.5 c-0.5 -0.2 -2.7 -0.6 -4.7 -1 -2.4 -0.4 -3.8 -1.1 -3.8 -2 0 -1.7 1.5 -1.8 8.4 -0.9 3.6 0.5 4.6 1.1 4.6 2.5 0 1.8 -1.8 2.3 -4.5 1.4z"/>
  <path d="M445.8 106.3 c-3.3 -0.8 -2 -3.3 1.7 -3.3 2.8 0 3.5 0.4 3.5 2 0 2 -1.4 2.3 -5.2 1.3z"/>
  <path d="M435 103.3 c0 -2 0.5 -2.3 3.5 -2.3 2.8 0 3.5 0.4 3.5 1.9 0 1.4 -0.9 2 -3.5 2.3 -3.1 0.4 -3.5 0.1 -3.5 -1.9z"/>
  <path d="M314.8 103.2 c-3.1 -0.6 -2 -2.9 1.7 -3.6 1.9 -0.4 3.5 -1.1 3.5 -1.6 0 -0.6 0.7 -1 1.5 -1 1.1 0 1.5 -1.1 1.5 -4 0 -3.3 0.3 -4 2 -4 1.7 0 1.9 0.5 1.6 3.3 -1 7.7 -6 12.2 -11.8 10.9z"/>
  <path d="M370.8 103.3 c-3.3 -0.8 -2 -3.3 1.7 -3.3 2.8 0 3.5 0.4 3.5 2 0 2 -1.4 2.3 -5.2 1.3z"/>
  <path d="M359.3 98.5 c-4.3 -1.8 -4.2 -3.5 0.2 -3.5 3.1 0 3.5 0.3 3.5 2.5 0 1.4 -0.1 2.5 -0.2 2.5 -0.2 -0.1 -1.8 -0.7 -3.5 -1.5z"/>
  <path d="M307 97.1 c-1.6 -3.1 -1.2 -5.1 1 -5.1 1.6 0 2 0.7 2 3.5 0 3.9 -1.4 4.6 -3 1.6z"/>
  <path d="M474 90 c0 -1.6 -0.7 -2 -3.5 -2 -3.1 0 -3.5 -0.3 -3.5 -2.5 0 -1.4 0.2 -2.5 0.5 -2.5 1.2 0 13.5 7.5 13.5 8.2 0 0.4 -1.6 0.8 -3.5 0.8 -2.8 0 -3.5 -0.4 -3.5 -2z"/>
  <path d="M323.4 79.6 c1.4 -1.9 2.6 -3.9 2.6 -4.5 0 -0.6 0.7 -1.1 1.5 -1.1 1 0 1.5 1 1.5 3.3 0 4.1 -1.5 5.7 -5.3 5.7 l-2.9 0 2.6 -3.4z"/>
  <path d="M445 74.5 c0 -2.4 0.1 -2.5 3.2 -1.2 4.6 1.9 4.8 3.7 0.4 3.7 -3.2 0 -3.6 -0.3 -3.6 -2.5z"/>
  <path d="M317.8 64.2 c-0.1 -0.4 -5 -3.1 -10.8 -6.1 -15 -7.6 -22.9 -12.4 -29.4 -17.6 -5.8 -4.8 -7.7 -8.5 -5.6 -11 1.7 -2 3 -1.9 3 0.3 0.1 1.6 5.3 8.2 6.6 8.2 0.4 0 1.4 0.8 2.3 1.9 0.9 1 2.6 2.1 3.9 2.5 1.2 0.4 2.2 1.2 2.2 1.7 0 0.5 0.7 0.9 1.5 0.9 0.8 0 1.5 0.7 1.5 1.5 0 0.9 0.9 1.5 2.5 1.5 1.6 0 2.5 0.6 2.5 1.5 0 0.9 0.9 1.5 2.4 1.5 1.3 0 6 1.8 10.5 4.1 7.4 3.7 8.1 4.3 8.1 7 0 2.8 -0.5 3.7 -1.2 2.1z"/>
  <path d="M440 49.5 c0 -4 2.4 -4.9 3.4 -1.2 1 3.7 0.7 4.7 -1.4 4.7 -1.6 0 -2 -0.7 -2 -3.5z"/>
  <path d="M351 49.3 c-0.8 -0.3 -4.8 -1.9 -8.7 -3.5 -6.2 -2.5 -7.3 -3.3 -7.3 -5.4 0 -2.4 0 -2.4 3.6 -0.9 2 0.8 4.4 1.5 5.3 1.5 1.3 0 16.9 -9.8 19.1 -12 0.3 -0.3 1.2 -0.9 2.1 -1.5 4 -2.5 16.9 -11.4 21.9 -15 10.6 -7.8 12.8 -8 24.3 -2.4 8.2 3.9 15.1 9.2 20.4 15.7 5 6.1 5.2 7.2 1.8 7.2 -1.8 0 -2.5 -0.5 -2.5 -1.9 0 -1 -0.9 -2.1 -2 -2.4 -1.4 -0.3 -2 -1.4 -2 -3.1 0 -2.1 -0.5 -2.6 -2.5 -2.6 -1.4 0 -3 -0.9 -3.7 -2 -0.7 -1.1 -1.8 -2 -2.5 -2 -0.7 0 -1.3 -0.4 -1.3 -1 0 -0.5 -0.7 -1 -1.5 -1 -0.8 0 -1.5 -0.4 -1.5 -0.9 0 -1.6 -3.3 -1.7 -6.2 -0.3 -1.6 0.7 -2.8 1.7 -2.8 2.2 0 0.4 -0.8 1 -1.7 1.3 -1 0.4 -4.5 2.7 -7.8 5.2 -3.3 2.5 -6.7 4.8 -7.5 5.2 -1.3 0.6 -8.3 5.5 -11.6 8.2 -0.5 0.4 -2.1 1.4 -3.3 2.1 -1.3 0.6 -4.9 3.2 -8.1 5.6 -5.7 4.3 -9.5 5.3 -14 3.7z"/>
  <path d="M321 34 c0 -2.1 1 -2.4 4.8 -1.4 3.6 1 2.7 3.4 -1.3 3.4 -2.8 0 -3.5 -0.4 -3.5 -2z"/>
  <path d="M311 32 c0 -2.1 1 -2.4 4.8 -1.4 3.6 1 2.7 3.4 -1.3 3.4 -2.8 0 -3.5 -0.4 -3.5 -2z"/>
  <path d="M291 29 c0 -2.1 1 -2.4 4.8 -1.4 3.6 1 2.7 3.4 -1.3 3.4 -2.8 0 -3.5 -0.4 -3.5 -2z"/>
 </g>
 <g fill="#9178ba">
  <path d="M427 134.8 c0 -3.4 0.3 -3.8 2.5 -3.8 3.1 0 3.2 1.1 0 4.7 l-2.4 2.8 -0.1 -3.7z"/>
  <path d="M414 111.5 c0 -0.9 -0.9 -1.5 -2.2 -1.5 -3.9 0 -6.8 -1.2 -6.8 -2.6 0 -1 1.5 -1.4 5.5 -1.4 l5.5 0 0 3.5 c0 1.9 -0.4 3.5 -1 3.5 -0.5 0 -1 -0.7 -1 -1.5z"/>
  <path d="M472.8 110.3 c-3.6 -0.9 -2 -3.3 2.2 -3.3 3.3 0 4 0.3 4 2 0 2 -2 2.4 -6.2 1.3z"/>
  <path d="M489 108 c0 -1.1 0.7 -2 1.5 -2 2.2 0 1.8 -2.7 -0.5 -3.3 -1.5 -0.4 -2 -1.4 -2 -3.7 0 -2.9 0.2 -3.1 1.8 -1.9 3.1 2.4 6.1 6.4 6.2 8.1 0 2.2 -2.7 4.8 -5.1 4.8 -1.2 0 -1.9 -0.7 -1.9 -2z"/>
  <path d="M392.8 108.3 c-3.3 -0.8 -2 -3.3 1.7 -3.3 2.8 0 3.5 0.4 3.5 2 0 2 -1.4 2.3 -5.2 1.3z"/>
  <path d="M432 104.6 c0 -3.2 2.4 -3.9 9.5 -3.1 4.5 0.6 5.5 1.1 5.5 2.6 0 2 -1.6 2.3 -6 1 -1.5 -0.4 -3.8 -0.2 -5.7 0.6 -3.2 1.3 -3.3 1.2 -3.3 -1.1z"/>
  <path d="M377.8 105.3 c-3.3 -0.8 -2 -3.3 1.7 -3.3 2.8 0 3.5 0.4 3.5 2 0 2 -1.4 2.3 -5.2 1.3z"/>
  <path d="M309.2 100.3 l-2.7 -2.8 2.3 -0.3 c3.6 -0.5 5.2 0.5 5.2 3.3 0 3.2 -1.4 3.2 -4.8 -0.2z"/>
  <path d="M366.3 101.5 c-4 -1.7 -4.3 -3.5 -0.5 -3.5 4.7 0 7.2 1.1 7.2 3.1 0 2.3 -2.2 2.4 -6.7 0.4z"/>
  <path d="M355.2 96.4 c-6.1 -3 -6.6 -4.4 -1.7 -4.4 1.9 0 3.5 0.5 3.5 1 0 0.6 0.9 1 2 1 1.5 0 2 0.7 2 2.5 0 1.4 -0.1 2.5 -0.3 2.5 -0.2 0 -2.6 -1.2 -5.5 -2.6z"/>
  <path d="M306.4 91.8 c1.1 -5.9 10.6 -12.1 10.6 -6.9 0 2 -1.8 3.1 -5.1 3.1 -1.5 0 -1.9 0.7 -1.9 3.5 0 2.9 -0.4 3.5 -2.1 3.5 -1.9 0 -2.1 -0.4 -1.5 -3.2z"/>
  <path d="M323 90.5 c0 -3.2 0.3 -3.5 2.9 -3.5 l2.8 0 -1.6 3.5 c-2.1 4.5 -4.1 4.5 -4.1 0z"/>
  <path d="M339.8 87.2 c-3.7 -2.6 -6.7 -5 -6.8 -5.4 0 -0.5 1.6 -0.8 3.5 -0.8 2.4 0 3.5 0.5 3.5 1.5 0 0.8 0.9 1.5 2 1.5 1.1 0 2 0.5 2 1 0 0.6 0.7 1 1.5 1 1 0 1.5 1 1.5 3 0 1.7 -0.1 3 -0.2 3 -0.2 -0.1 -3.3 -2.2 -7 -4.8z"/>
  <path d="M363.5 86.3 c-1.1 -0.3 -2.4 -0.9 -3 -1.3 -0.5 -0.4 -3.5 -1.5 -6.5 -2.5 -3 -1 -5.9 -2.1 -6.5 -2.5 -0.5 -0.4 -3.5 -1.5 -6.5 -2.5 -3 -1 -6.4 -2.4 -7.5 -3.1 -2.9 -2.1 -3.5 -1.7 -3.5 2.1 0 3.2 -0.2 3.5 -3 3.5 -2.8 0 -2.9 -0.2 -1.8 -2 1 -1.6 1 -2.4 0 -4 -1 -1.6 -1 -2 0 -2 0.7 0 -0.2 -0.9 -2 -2 -1.8 -1.1 -3.8 -3.1 -4.4 -4.5 -0.8 -1.8 -4.4 -4.1 -12.2 -8 -13.1 -6.5 -18.6 -9.5 -20.4 -11.2 -0.7 -0.7 -1.7 -1.3 -2.2 -1.3 -1.3 0 -13 -11.4 -13 -12.6 0 -2.2 2.7 -4.3 6.3 -4.9 3.3 -0.6 3.7 -0.5 3.7 1.3 0 1.1 -0.8 2.2 -1.7 2.4 -1.3 0.2 -0.7 1.1 2.3 3.5 9.3 7.4 28 17.5 49.4 26.8 4.7 2 9.4 4 10.5 4.5 3.5 1.6 20.4 8 21 8 0.4 0 3.1 1.1 6.1 2.5 5.4 2.5 5.5 2.6 5.2 6.3 -0.3 3.6 -0.4 3.7 -4.3 3.9 -2.2 0 -4.9 -0.1 -6 -0.4z"/>
  <path d="M449 76.5 c0 -2.9 0.2 -3 4 -1 4 2.1 3.8 3.5 -0.5 3.5 -3.1 0 -3.5 -0.3 -3.5 -2.5z"/>
  <path d="M441 55.5 c0 -4 2.4 -4.9 3.4 -1.2 1 3.7 0.7 4.7 -1.4 4.7 -1.6 0 -2 -0.7 -2 -3.5z"/>
  <path d="M359 53.1 c-8 -2.6 -16 -6.2 -16 -7.2 0 -0.5 -0.9 -0.9 -2 -0.9 -1.1 0 -4.4 -1.2 -7.5 -2.7 -5 -2.5 -5.5 -3 -5.5 -5.9 0 -2.7 0.3 -3.1 2 -2.7 1.1 0.3 2 1.1 2 1.8 0 1.2 11.8 7.1 19.9 10 l4.3 1.5 5.8 -4.4 c3.2 -2.4 6.8 -5 8.1 -5.6 1.2 -0.7 2.8 -1.7 3.3 -2.1 3.3 -2.7 10.3 -7.6 11.6 -8.2 0.8 -0.4 4.2 -2.7 7.5 -5.2 3.3 -2.5 6.8 -4.8 7.8 -5.2 0.9 -0.3 1.7 -0.9 1.7 -1.3 0 -0.4 1.8 -1.7 4 -2.9 3.7 -1.9 4.4 -2 7.3 -0.7 4.4 1.8 15.1 10 17.1 13.1 1.6 2.4 1.6 2.5 -0.9 2.5 -3 0 -6.5 -2.8 -6.5 -5.2 0 -2.6 -2.1 -2.2 -6.6 1.2 -2.1 1.6 -4.3 3 -4.7 3 -0.4 0 -3.2 1.8 -6.1 4 -5.3 4 -9.9 7.2 -25.3 17.4 -4.4 3 -8.4 6 -8.8 6.5 -0.9 1.6 -6.2 1.2 -12.5 -0.8z"/>
  <path d="M438 44.5 c0 -1.4 -0.4 -2.5 -0.9 -2.5 -0.5 0 -1.5 -1.6 -2.2 -3.5 -0.7 -1.9 -1.7 -3.5 -2.1 -3.5 -0.4 0 -0.8 -1.6 -0.8 -3.5 0 -1.9 0.3 -3.5 0.8 -3.5 1.1 0 5.8 7.9 8.1 13.8 l2.1 5.2 -2.5 0 c-2 0 -2.5 -0.5 -2.5 -2.5z"/>
  <path d="M310.8 33.8 c-4.7 -0.8 -5.8 -1.4 -5.8 -2.9 0 -2.3 -0.4 -2.3 9.3 -0.4 4.3 0.8 8.1 1.5 8.3 1.5 0.2 0 0.4 0.7 0.4 1.5 0 1.7 -3.3 1.8 -12.2 0.3z"/>
  <path d="M290 29 c0 -2.1 1 -2.4 4.8 -1.4 3.6 1 2.7 3.4 -1.3 3.4 -2.8 0 -3.5 -0.4 -3.5 -2z"/>
 </g>
 <g fill="#8a6fb8">
  <path d="M422 137.1 c0 -2.1 1.9 -3.1 5.6 -3.1 3 0 3.1 1.4 0.2 3.4 -3.1 2.2 -5.8 2 -5.8 -0.3z"/>
  <path d="M412 126.2 c0 -1.1 0.9 -2.7 2 -3.7 2 -1.8 2 -1.7 2 1.8 0 3 -0.4 3.7 -2 3.7 -1.3 0 -2 -0.7 -2 -1.8z"/>
  <path d="M414.4 113.9 c-0.5 -2.9 -1.3 -4.3 -2.5 -4.6 -3.3 -0.9 -2.2 -3.3 1.5 -3.3 3.1 0 3.4 0.3 4 3.8 1 6 0.7 8.2 -0.9 8.2 -1 0 -1.7 -1.4 -2.1 -4.1z"/>
  <path d="M421 113.5 c0 -4 2.4 -4.9 3.4 -1.2 1 3.7 0.7 4.7 -1.4 4.7 -1.6 0 -2 -0.7 -2 -3.5z"/>
  <path d="M474.8 110.3 c-3.3 -0.8 -2 -3.3 1.7 -3.3 2.8 0 3.5 0.4 3.5 2 0 2 -1.4 2.3 -5.2 1.3z"/>
  <path d="M483 109 c0 -1.7 0.7 -2 4 -2 2.2 0 4 -0.4 4 -1 0 -0.5 1.1 -1 2.5 -1 4.7 0 2.6 3.3 -3 4.9 -5.8 1.6 -7.5 1.4 -7.5 -0.9z"/>
  <path d="M465.8 109.3 c-3.3 -0.8 -2 -3.3 1.7 -3.3 2.8 0 3.5 0.4 3.5 2 0 2 -1.4 2.3 -5.2 1.3z"/>
  <path d="M457.8 108.3 c-3.3 -0.8 -2 -3.3 1.7 -3.3 2.8 0 3.5 0.4 3.5 2 0 2 -1.4 2.3 -5.2 1.3z"/>
  <path d="M425 106.1 c0 -1.4 0.6 -2.1 2 -2.1 1.3 0 2 -0.7 2 -2 0 -1.6 0.7 -2 3.5 -2 3.1 0 3.5 0.3 3.5 2.5 0 2.7 -1.8 4 -7.3 5 -3.3 0.7 -3.7 0.5 -3.7 -1.4z"/>
  <path d="M381.8 106.3 c-3.3 -0.8 -2 -3.3 1.7 -3.3 2.8 0 3.5 0.4 3.5 2 0 2 -1.4 2.3 -5.2 1.3z"/>
  <path d="M309.7 100.6 c-2.5 -1.9 -3.8 -6.6 -2.9 -10.1 1 -3.7 6.4 -7.5 10.6 -7.5 1.8 0 3.7 -0.5 4.4 -1.2 0.9 -0.9 1.2 -0.5 1.2 2 l0 3.2 -5.9 0 -5.8 0 -0.7 4.2 c-0.4 2.6 -0.3 4.4 0.4 4.8 0.7 0.4 1 1.9 0.8 3.3 -0.3 2.3 -0.5 2.4 -2.1 1.3z"/>
  <path d="M364.3 100.5 c-4.3 -1.8 -4.2 -3.5 0.2 -3.5 3.1 0 3.5 0.3 3.5 2.5 0 1.4 -0.1 2.5 -0.2 2.5 -0.2 -0.1 -1.8 -0.7 -3.5 -1.5z"/>
  <path d="M322 96.5 c0 -2.8 0.4 -3.5 2 -3.5 2.2 0 2.6 2 1 5.1 -1.6 3 -3 2.3 -3 -1.6z"/>
  <path d="M355.3 96.4 c-4.3 -2.1 -4.2 -3.4 0.2 -3.4 3.1 0 3.5 0.3 3.5 2.5 0 1.4 -0.1 2.5 -0.2 2.5 -0.2 0 -1.8 -0.8 -3.5 -1.6z"/>
  <path d="M483 96 c0 -1.6 -0.7 -2 -3 -2 -2.5 0 -3 -0.4 -3 -2.5 0 -1.4 0.3 -2.5 0.7 -2.5 1 0 10 6 11.3 7.6 1.1 1.2 0.7 1.4 -2.4 1.4 -2.9 0 -3.6 -0.4 -3.6 -2z"/>
  <path d="M377.3 91.3 c-1.3 -0.2 -2.3 -0.8 -2.3 -1.2 0 -0.4 -2.5 -1.3 -5.5 -2 -3 -0.7 -5.5 -1.7 -5.5 -2.2 0 -0.5 -1 -0.9 -2.1 -0.9 -2.8 0 -11.9 -3.2 -11.9 -4.2 0 -0.5 -0.8 -0.8 -1.7 -0.8 -3 0 -8.3 -2.4 -8.3 -3.7 0 -0.7 -1.1 -1.3 -2.7 -1.3 -3.2 0 -9.3 -2.1 -9.3 -3.2 0 -0.4 -1.1 -0.8 -2.4 -0.8 -2.4 0 -8.3 -5.6 -7.2 -6.8 0.5 -0.4 5.4 1.5 19.1 7.8 2.2 1 5.8 2.3 8 3 2.2 0.7 4.5 1.6 5 2 0.6 0.4 3.5 1.5 6.5 2.5 3 1 6 2.1 6.5 2.5 1.9 1.4 6.4 2 7 1 0.5 -0.8 -9 -6 -11 -6 -0.6 0 -17.5 -6.4 -21 -8 -1.1 -0.5 -5.8 -2.5 -10.5 -4.5 -34.8 -15.1 -60.7 -31.9 -54.9 -35.6 2.2 -1.3 3 -1.1 3.6 1.1 0.3 1.1 1.2 2 1.9 2 0.8 0 1.9 0.9 2.6 2 0.7 1.1 1.9 2 2.6 2 0.7 0 1.5 0.7 1.8 1.5 0.4 0.8 1.2 1.5 2 1.5 0.8 0 1.4 0.4 1.4 0.9 0 0.5 1.1 1.2 2.5 1.5 1.4 0.4 2.5 1.3 2.5 2.1 0 0.9 0.9 1.5 2.1 1.5 2.7 0 7.9 3.1 7.9 4.7 0 0.7 1.1 1.3 2.5 1.3 2.8 0 7.5 2 7.5 3.2 0 0.4 0.9 0.8 2 0.8 2.4 0 9 3.1 9 4.2 0 0.4 0.9 0.8 2 0.8 2.1 0 11.3 4.1 11.8 5.3 0.2 0.4 1.1 0.7 2 0.7 2.2 0 23.6 8.2 24 9.2 0.2 0.4 1.2 0.8 2.2 0.8 1 0 5.1 1.3 9.1 3 4.1 1.6 7.5 3 7.7 3 0.1 0 0.2 0.7 0.2 1.5 0 0.8 0.5 1.5 1 1.5 0.6 0 1 1.6 1 3.5 0 3.3 -0.2 3.5 -3.2 3.4 -1.8 -0.1 -4.3 -0.4 -5.5 -0.6z"/>
  <path d="M447 76.5 c0 -1 -1 -1.5 -3 -1.5 -2.8 0 -3 -0.2 -3 -4 0 -3.3 0.3 -4 2 -4 1.5 0 2 0.7 2 2.5 0 2 0.9 2.9 4.5 4.6 5.4 2.5 5.7 3.9 1 3.9 -2.4 0 -3.5 -0.5 -3.5 -1.5z"/>
  <path d="M440.5 54.3 c-0.4 -3.2 -1.2 -6.1 -1.7 -6.4 -0.6 -0.4 -1.3 -2.7 -1.5 -5.3 -1.2 -10.2 4.5 -1.7 6.6 10 1.4 7.5 1.4 7.4 -0.8 7.4 -1.5 0 -2 -1 -2.6 -5.7z"/>
  <path d="M365 56.1 c-4.6 -1.6 -8.6 -3.4 -8.8 -4 -0.2 -0.6 -1.5 -1.1 -2.8 -1.1 -1.3 0 -2.4 -0.4 -2.4 -1 0 -0.5 -0.9 -1 -2 -1 -1 0 -3.5 -0.8 -5.5 -1.7 -2.5 -1.2 -3.5 -2.3 -3.5 -4 0 -2.6 -0.8 -2.8 12.1 3 8 3.6 15.7 5.8 16.5 4.6 0.3 -0.6 4.3 -3.5 8.7 -6.5 15.4 -10.2 20 -13.4 25.3 -17.4 2.9 -2.2 5.6 -4 6 -4 0.3 0 2.8 -1.6 5.5 -3.6 3.2 -2.3 5.5 -3.3 6.7 -3 3.8 1.3 17 16.5 17.2 19.9 0 0.4 -1.1 0.7 -2.5 0.7 -2 0 -2.5 -0.5 -2.5 -2.5 0 -1.6 -0.6 -2.5 -1.5 -2.5 -0.8 0 -1.5 -0.4 -1.5 -0.9 0 -0.5 -0.7 -1.2 -1.6 -1.5 -1.5 -0.6 -4.5 0.8 -7.9 3.6 -0.5 0.4 -3.9 2.8 -7.5 5.3 -16.6 11.4 -23.5 16.1 -25.7 17.3 -1.3 0.7 -2.3 1.7 -2.3 2.3 0 2 -11.6 0.8 -20 -2z"/>
  <path d="M328 38 c0 -0.5 -0.7 -1 -1.5 -1 -0.8 0 -1.5 -0.9 -1.5 -2 0 -1.3 0.7 -2 1.8 -2 1.9 0 6.4 2.9 4.7 3 -0.5 0 0.1 0.7 1.5 1.5 l2.5 1.4 -3.7 0.1 c-2.1 0 -3.8 -0.4 -3.8 -1z"/>
  <path d="M300.8 32.3 c-2 -0.3 -2.8 -1 -2.8 -2.4 0 -2.2 1 -2.3 8 -0.8 3.1 0.7 5 1.6 5 2.5 0 1.4 -3.8 1.7 -10.2 0.7z"/>
 </g>
 <g fill="#8567b6">
  <path d="M475.8 110.3 c-1 -0.2 -1.8 -1.1 -1.8 -1.9 0 -1.1 1.7 -1.4 7.5 -1.4 5.7 0 7.5 0.3 7.5 1.4 0 2.2 -7.8 3.3 -13.2 1.9z"/>
  <path d="M394 108.5 c-0.8 -0.2 -3.2 -0.6 -5.2 -1 -2.4 -0.4 -3.8 -1.1 -3.8 -2 0 -1.7 1.1 -1.8 8.8 -0.9 4.2 0.6 5.2 1 5.2 2.5 0 1.8 -1.2 2.1 -5 1.4z"/>
  <path d="M459 108.5 c-0.8 -0.2 -3.2 -0.6 -5.2 -1 -2.4 -0.4 -3.8 -1.1 -3.8 -2 0 -1.7 1.1 -1.8 8.8 -0.9 4.2 0.6 5.2 1 5.2 2.5 0 1.8 -1.2 2.1 -5 1.4z"/>
  <path d="M427.3 106.3 c-0.7 -0.2 -1.3 -2 -1.3 -3.9 0 -3.1 0.3 -3.4 2.9 -3.4 4.6 0 6.1 1 6.1 4 0 3.3 -3.8 4.9 -7.7 3.3z"/>
  <path d="M376.8 104.8 c-4.2 -1.1 -5.2 -3.8 -1.4 -3.8 5.2 0 8.6 1.2 8.6 3.1 0 2.1 -1.4 2.2 -7.2 0.7z"/>
  <path d="M441 105 c-1.9 -0.5 -3.8 -0.6 -4.2 -0.4 -0.5 0.3 -0.8 -0.4 -0.8 -1.5 0 -2.3 1.6 -2.6 8.3 -1.5 2.7 0.5 3.7 1.1 3.7 2.5 0 2.1 -1.3 2.2 -7 0.9z"/>
  <path d="M310.5 101 c-1.8 -2 -1.7 -2 1.8 -2 3 0 3.7 0.4 3.7 2 0 1.3 -0.7 2 -1.8 2 -1.1 0 -2.7 -0.9 -3.7 -2z"/>
  <path d="M318 100.5 c0 -1.5 0.6 -2.5 1.4 -2.5 0.8 0 1.7 -1.3 2.1 -3 0.5 -2.1 1.2 -3 2.7 -3 1.8 0 2 0.4 1.4 3.3 -0.6 3 -4.6 7.7 -6.7 7.7 -0.5 0 -0.9 -1.1 -0.9 -2.5z"/>
  <path d="M406.8 100.7 c-3.5 -1 -3.8 -1.4 -3.8 -4.5 l0 -3.5 5.4 0.7 c7.9 0.9 8.6 1.3 8.6 5.2 0 3.2 -0.2 3.4 -3.2 3.3 -1.8 -0.1 -5 -0.6 -7 -1.2z"/>
  <path d="M391 95.1 c0 -0.4 -2.1 -1.3 -4.7 -1.9 -9.1 -2.1 -15.8 -4.2 -16.1 -5.2 -0.2 -0.6 -1.9 -1 -3.8 -1 -2.9 0 -3.4 -0.3 -3.4 -2.4 l0 -2.3 7.3 2.1 c3.9 1.1 7.5 2.5 7.8 3 0.7 0.9 2.9 0 2.9 -1.3 0 -1 -3.5 -2.5 -28 -12 -34.5 -13.3 -59.8 -25.6 -72.2 -35.3 -7 -5.4 -9 -7.9 -7.6 -9.5 2.1 -2.6 4.7 -1.5 5.4 2.2 0.5 2.8 1.1 3.5 3 3.5 1.5 0 2.4 0.6 2.4 1.5 0 0.8 0.9 1.5 2 1.5 1.1 0 2 0.5 2 1 0 0.6 0.6 1 1.4 1 0.8 0 2.1 0.6 2.8 1.4 0.8 0.7 2.4 1.7 3.6 2 1.2 0.4 2.2 1.4 2.2 2.2 0 0.8 0.9 1.4 2 1.4 2.3 0 16.3 6.8 16.8 8.1 0.2 0.5 1.1 0.9 2.1 0.9 1 0 6.7 2.2 12.7 4.9 6 2.6 12.6 5.4 14.7 6.2 2 0.7 3.7 1.7 3.7 2.1 0 0.4 0.8 0.8 1.8 0.8 2.5 0 40.2 14.3 40.2 15.3 0 1.4 2.8 3.7 4.4 3.7 1.2 0 1.6 1 1.6 3.5 0 3.3 -0.2 3.5 -3.5 3.5 -1.9 0 -3.5 -0.4 -3.5 -0.9z"/>
  <path d="M345.3 90.5 l-2.8 -2.4 3.8 -0.1 c3.3 0 3.7 0.3 3.7 2.5 0 3.1 -1.1 3.2 -4.7 0z"/>
  <path d="M308 88.1 c0 -1.8 4.9 -4.4 9 -4.6 3.2 -0.2 4 0.1 4 1.5 0 1.2 -1.1 2 -3.2 2.4 -8 1.7 -9.8 1.8 -9.8 0.7z"/>
  <path d="M327.2 85.4 c0.3 -3.7 0.5 -3.9 4.1 -4.2 2 -0.2 3.7 0 3.6 0.5 0 0.4 -1.9 2.3 -4.1 4.2 l-3.9 3.5 0.3 -4z"/>
  <path d="M465 85.5 c0 -1 -1 -1.5 -3 -1.5 -2.5 0 -3 -0.4 -3 -2.5 0 -1.4 0.3 -2.5 0.6 -2.5 1.4 0 12.4 6.3 12.4 7.1 0 0.5 -1.6 0.9 -3.5 0.9 -2.4 0 -3.5 -0.5 -3.5 -1.5z"/>
  <path d="M345.8 80.3 c-1 -0.2 -1.8 -1.1 -1.8 -1.9 0 -0.9 -1.1 -1.4 -3.5 -1.4 -2.4 0 -3.5 -0.5 -3.5 -1.5 0 -1 -1.1 -1.5 -3.5 -1.5 -1.9 0 -3.5 -0.4 -3.5 -1 0 -1.5 -4 -1.2 -4 0.3 -0.1 1.3 -5.4 -4.4 -7.2 -7.7 -0.8 -1.5 -0.7 -1.8 0.3 -1.3 0.8 0.3 8.8 3.7 17.8 7.5 9.1 3.8 16.7 7.4 16.9 8 0.4 1.2 -4.3 1.5 -8 0.5z"/>
  <path d="M441 69.5 c0 -2.9 0.4 -3.5 2.1 -3.5 1.8 0 2.1 0.4 1.6 2.9 -0.4 1.9 -0.2 3.1 0.6 3.5 0.7 0.2 0 0.5 -1.5 0.5 -2.5 0.1 -2.8 -0.2 -2.8 -3.4z"/>
  <path d="M373 59.4 c-5.8 -1.9 -10.6 -3.9 -10.8 -4.5 -0.2 -0.5 -1.1 -0.9 -2 -0.9 -0.9 0 -4 -1 -6.9 -2.2 -4.2 -1.7 -5.3 -2.6 -5.3 -4.5 l0 -2.3 4.8 2 c2.6 1 7.5 3.1 11 4.5 8.9 3.7 17.1 5.3 18.1 3.6 0.5 -0.7 1.7 -1.8 2.8 -2.4 1.9 -1.2 13 -8.7 25.3 -17.2 6.9 -4.8 9.5 -6.7 14.3 -10.2 l3 -2.2 2.7 2.2 c3.1 2.5 9.5 12.8 10.5 17 0.4 1.5 1.1 3 1.6 3.3 1.8 1.1 1 4.4 -1.1 4.4 -1.6 0 -2 -0.7 -2 -3.5 0 -2.4 -0.5 -3.5 -1.5 -3.5 -0.8 0 -1.5 -0.7 -1.5 -1.5 0 -2.5 -3.8 -5.7 -5.3 -4.5 -2.2 1.9 -15.8 11.4 -19.1 13.4 -1.7 1 -4.9 3.2 -7.1 5 -11 8.8 -15.5 9.4 -31.5 4z"/>
  <path d="M441 58 c0 -4.5 2.3 -5.7 3.4 -1.7 1.1 4.1 0.7 5.7 -1.4 5.7 -1.7 0 -2 -0.7 -2 -4z"/>
  <path d="M333.3 42.7 c-2.4 -1.1 -4.3 -2.6 -4.3 -3.3 0 -1.9 -8.7 -4.1 -25.2 -6.6 -13.1 -1.9 -14.8 -2.4 -14.8 -4.1 0 -1.6 0.5 -1.8 4.3 -1.2 28 4.2 37.7 6.2 37.7 7.9 0 0.6 2.9 2.6 6.5 4.4 3.6 1.7 6.5 3.6 6.5 4.2 0 1.7 -6.3 1 -10.7 -1.3z"/>
 </g>
 <g fill="#7d5cb3">
  <path d="M391.5 107.9 c-10 -1.6 -24.5 -6.1 -24.5 -7.5 0 -2.1 3.5 -1.7 16.1 1.6 6.3 1.6 13.1 3 15.2 3 3 0 3.7 0.4 3.7 2 0 2.2 -1.8 2.4 -10.5 0.9z"/>
  <path d="M422.8 105.9 c-1 -1 -1.8 -3.2 -1.8 -4.9 0 -2.6 0.4 -3 2.8 -3 4.6 0 16.2 3.2 16.2 4.5 0 1.2 -11.7 5.6 -14.3 5.4 -0.6 0 -2 -0.9 -2.9 -2z"/>
  <path d="M310.1 100.4 c-2.5 -2 -3.1 -3.4 -3.1 -6.4 0 -2.1 0.3 -4.6 0.6 -5.5 0.9 -2.1 5.6 -4.5 9.1 -4.5 3.3 0 11 -7 9.9 -8.9 -1.5 -2.4 3.8 -1 7.1 1.9 1.8 1.7 3.8 3 4.3 3 0.6 0 1 1.4 1 3 0 3 0 3 -2.4 1.4 -1.6 -0.9 -3 -1.2 -3.9 -0.7 -2.9 1.7 -6.4 6.9 -7.1 10.7 -1.5 8 -9.4 11.1 -15.5 6z"/>
  <path d="M408 101.3 c-0.8 -0.2 -2.4 -0.8 -3.5 -1.2 -1.1 -0.5 -3.6 -1.3 -5.5 -1.9 -14.4 -4.2 -21.5 -6.7 -21.8 -7.4 -0.2 -0.4 -1.4 -0.8 -2.6 -0.8 -3.1 0 -8.6 -2 -8.6 -3.1 0 -0.5 -1 -0.9 -2.2 -0.9 -3.5 0 -14.8 -4.2 -14.8 -5.6 0 -0.6 -2 -1.4 -4.7 -1.7 -2.6 -0.3 -4.9 -1 -5.1 -1.6 -0.2 -0.6 -1.4 -1.1 -2.7 -1.1 -1.3 0 -3 -0.7 -3.9 -1.5 -0.8 -0.8 -2.4 -1.5 -3.5 -1.5 -1.6 0 -2.1 -0.6 -2.1 -2.5 0 -2.1 0.3 -2.3 2.3 -1.6 3.3 1.3 14.9 6.1 17.2 7.1 6.7 3 38.8 14 41.1 14 0.8 0 1.4 -0.6 1.4 -1.3 0 -0.7 -9.3 -4.7 -22.2 -9.6 -35.9 -13.5 -60.1 -24.3 -76.1 -34 -9.2 -5.5 -17.7 -12.6 -17.7 -14.6 0 -1.8 5.3 -3.5 11 -3.5 5.5 0 35.3 4.5 41.4 6.2 2.3 0.6 4.8 1.9 5.6 2.9 2.9 3.5 41 19.9 53.3 23 4.5 1.1 5.2 1 9 -1.1 2.3 -1.3 6 -3.8 8.2 -5.6 2.2 -1.7 5.4 -4 7.1 -5 3.2 -1.9 16.9 -11.5 19.1 -13.4 0.7 -0.5 1.5 -1 1.9 -1 0.4 0 1.5 -0.7 2.4 -1.5 1.6 -1.5 1.9 -1.3 4.1 2.2 6.1 9.9 9.8 24.7 8.5 34 -0.4 3.1 -0.2 4.3 0.9 4.7 0.8 0.3 1.5 1.5 1.5 2.6 0 1.5 -0.7 2 -2.7 2 -5.9 0 -34.5 -5.9 -50.8 -10.4 -4.9 -1.4 -9 -2.4 -9.1 -2.3 -1.2 1.6 -4.4 14.1 -3.8 14.7 0.5 0.4 6.6 2.9 13.7 5.5 7 2.6 12.7 5.3 12.7 5.9 0.1 1.5 6.5 4.6 9.5 4.6 2.2 0 2.5 0.4 2.5 3.5 l0 3.5 -4.7 -0.1 c-2.7 0 -5.5 -0.3 -6.3 -0.6z"/>
  <path d="M362.3 99.5 c-4.3 -1.8 -4.2 -3.5 0.2 -3.5 3.1 0 3.5 0.3 3.5 2.5 0 1.4 -0.1 2.5 -0.2 2.5 -0.2 -0.1 -1.8 -0.7 -3.5 -1.5z"/>
  <path d="M320 67.5 c-0.7 -0.9 -1 -1.8 -0.6 -2.2 0.7 -0.8 5.6 1.7 5.6 2.9 0 1.4 -3.7 0.9 -5 -0.7z"/>
 </g>
 <g fill="#5c3f8c">
  <path d="M414 111.3 c0 -1.8 -0.9 -2 -11.1 -2.6 -26 -1.5 -54.3 -12.9 -72.8 -29.4 l-3.6 -3.2 3.6 -0.1 c4.1 0 5.9 1.4 5.9 4.7 0 2 0.5 2.3 3.4 2.3 1.9 0 3.6 0.3 3.8 0.8 0.4 1 6.7 4.5 15.3 8.5 6.9 3.3 7.1 3.3 17 2.7 5.5 -0.4 9.3 -0.7 8.5 -0.8 -0.8 -0.1 -6.7 -2.1 -13.2 -4.4 -10.3 -3.7 -11.8 -4.5 -11.8 -6.4 0 -2.2 0.3 -2.1 14.3 2.7 11.9 4.1 22.1 7.3 29.7 9.4 0.8 0.2 3.3 1.1 5.5 1.9 2.2 0.8 4.9 1.5 6 1.5 1.1 -0.1 0.4 -0.5 -1.5 -1 -5.3 -1.5 -10.1 -3.9 -9.5 -4.8 0.2 -0.5 -5.4 -3.1 -12.7 -5.7 -7.2 -2.7 -13.7 -5.4 -14.5 -6 -1.3 -0.8 -1 -2.4 1.8 -10.5 1.7 -5.1 3.5 -9.8 3.9 -10.2 0.5 -0.5 6.6 0.7 13.6 2.6 23 6.2 47.5 11.1 48.5 9.6 1 -1.6 3.9 0.2 3.9 2.4 0 1.9 -0.4 2 -7.7 1.4 -4.3 -0.4 -14.1 -2 -21.8 -3.6 -7.7 -1.6 -14.3 -2.6 -14.7 -2.3 -1 1.1 -4.8 13.4 -4.3 14.1 0.2 0.4 3.8 1.8 7.9 3.2 6.4 2 7.6 2.8 8.1 5 0.5 2.2 1.3 2.8 4.7 3.3 2.2 0.4 5.2 1.3 6.7 2 1.4 0.8 4.8 1.7 7.4 2.1 2.8 0.4 4.7 1.2 4.7 2 0 1.5 -3.8 2.7 -4.6 1.4 -0.3 -0.5 -1.3 -0.9 -2.2 -0.8 -1.4 0 -1.4 0.2 0.2 0.8 2.2 0.9 1.7 1.2 -4.1 3.1 -3 0.9 -4.3 1.9 -4.3 3.2 0 1.1 -0.7 1.8 -1.9 1.8 -1 0 -3.3 0.3 -5 0.6 -2.6 0.6 -3.1 0.4 -3.1 -1.3z m15.9 -8.7 c-0.2 -0.2 -1.7 -0.6 -3.4 -1 -2.2 -0.5 -2.6 -0.4 -1.5 0.4 1.4 0.9 5.9 1.5 4.9 0.6z"/>
  <path d="M351 82 c0 -0.5 -0.9 -1 -1.9 -1 -2.7 0 -13.1 -4.1 -13.1 -5.1 0 -0.5 -1.1 -0.9 -2.4 -0.9 -1.4 0 -3.1 -0.7 -4 -1.5 -0.8 -0.8 -2.3 -1.5 -3.3 -1.5 -2 0 -8.1 -5.6 -7.2 -6.5 0.4 -0.4 18.9 6.9 36.7 14.5 3.3 1.4 2.7 3 -1.3 3 -1.9 0 -3.5 -0.4 -3.5 -1z"/>
 </g>
 <g fill="#4f357d">
  <path d="M356 95.8 c-8.6 -4.1 -21.6 -12.7 -26.8 -17.7 -3 -2.9 -3.9 -4.5 -3.5 -6 0.4 -1.6 0.1 -2.1 -1.4 -2.1 -1.9 0 -6.1 -3.6 -5.2 -4.4 0.7 -0.8 27.3 11 27.7 12.2 0.2 0.8 -0.9 1.2 -3.2 1.2 -2.5 0 -3.6 -0.4 -3.6 -1.5 0 -1 -1.1 -1.5 -3.5 -1.5 -2.4 0 -3.5 0.5 -3.5 1.5 0 0.9 0.9 1.5 2.5 1.5 1.4 0 2.5 0.5 2.5 1 0 0.6 0.7 1 1.5 1 0.8 0 1.5 0.7 1.5 1.5 0 0.8 0.9 1.5 2 1.5 1.1 0 2 0.7 2 1.5 0 0.9 0.9 1.5 2.3 1.5 1.2 0 3.3 0.7 4.5 1.6 1.8 1.3 3.5 1.4 8.5 0.8 3.4 -0.4 5.4 -0.9 4.5 -1.2 -1 -0.2 -1.8 -1 -1.8 -1.8 0 -0.9 -1 -1.4 -2.8 -1.4 -1.6 0 -4.9 -0.7 -7.5 -1.6 -3.8 -1.3 -4.7 -2 -4.7 -3.9 l0 -2.4 6.3 2.4 c3.4 1.3 7.6 2.9 9.2 3.5 1.7 0.7 11.3 4.1 21.4 7.5 l18.4 6.3 -9.4 0.6 c-30.7 1.8 -30.8 1.8 -37.9 -1.6z"/>
  <path d="M412.3 95.3 c-0.3 -1.2 -3 -2.6 -8 -4.3 -4.2 -1.3 -8.2 -3 -8.8 -3.7 -1 -0.9 -0.5 -3.3 2.1 -10.9 1.8 -5.3 3.5 -9.8 3.7 -10 0.2 -0.2 8 1.2 17.3 3 9.3 1.9 18.6 3.7 20.7 4.1 2.3 0.4 3.7 1.1 3.7 2 0 2 -3 1.9 -18.3 -0.9 l-12.9 -2.3 -0.8 2.2 c-0.4 1.2 -1.5 4.5 -2.3 7.3 -1.8 5.8 -1.2 6.7 4.1 7.8 2.8 0.6 3.2 1 3.2 4 0 2.4 -0.5 3.4 -1.6 3.4 -0.9 0 -1.8 -0.8 -2.1 -1.7z"/>
 </g>
 <g fill="#4e3f69">
  <path d="M414.9 136.1 c-3.4 -3.4 -4 -9.2 -1.3 -13 1.3 -1.8 1.5 -3.6 1 -7.7 -0.5 -4.4 -0.3 -5.6 0.9 -6.1 2.3 -0.8 2.5 -0.3 3.2 7.6 0.5 6.2 0.4 7.1 -1.1 7.1 -2.6 0 -2.1 6.2 0.7 8.8 3.4 3.2 6.1 2.8 8.3 -1.4 l1.9 -3.5 -3.4 -3.1 c-2.9 -2.6 -3.5 -3.9 -3.9 -8.4 -0.4 -4.4 -0.2 -5.4 1.1 -5.4 1.1 0 1.9 1.3 2.3 3.7 0.4 2.3 2 4.9 4.1 6.9 2.6 2.5 3.3 3.9 3.3 7 -0.1 9.2 -10.7 13.8 -17.1 7.5z"/>
  <path d="M475.5 110.3 c-7.8 -0.7 -25.1 -3.3 -32 -4.9 -3.8 -0.8 -10.1 -2.3 -14 -3.1 -13.9 -3.1 -18.1 -5.1 -17 -8 0.2 -0.8 -0.4 -1.3 -1.5 -1.3 -1.1 0 -2 -0.4 -2 -1 0 -1.9 8 -1 18.7 2 22.6 6.4 53.8 11.3 60.7 9.6 3.7 -0.9 3.4 -3.6 -0.4 -3.6 -1.8 0 -3.3 -0.6 -3.6 -1.5 -0.4 -0.8 -1.2 -1.5 -1.8 -1.5 -0.7 0 -2.2 -0.9 -3.4 -2 -1.2 -1.1 -2.6 -2 -3.2 -2 -0.5 0 -1 -0.3 -1 -0.7 0 -0.5 -2 -1.6 -4.5 -2.6 -2.5 -1.1 -4.5 -2.3 -4.5 -2.7 0 -0.4 -1.1 -1.1 -2.5 -1.4 -1.4 -0.4 -2.5 -1.1 -2.5 -1.6 0 -0.6 -0.6 -1 -1.2 -1 -2 0 -17.8 -7.2 -17.8 -8.2 0 -0.4 0.6 -0.8 1.4 -0.8 0.8 0 1.6 -0.4 1.8 -1 0.4 -1.3 27.1 12.1 36.5 18.3 7.5 5 14.3 11.7 14.3 14.2 0 3.5 -9.9 5.8 -20.5 4.8z"/>
  <path d="M337.4 84.5 l-2.9 -2.5 3.8 0 c3.3 0 3.7 0.3 3.7 2.5 0 3.1 -0.9 3.1 -4.6 0z"/>
  <path d="M324.3 72.5 c-2.9 -3.3 -5.3 -6.3 -5.3 -6.7 0 -1 7.9 2.6 9.7 4.4 0.9 0.9 1.3 2.9 1.1 4.9 l-0.3 3.3 -5.2 -5.9z"/>
 </g>
 <g fill="#442b6e">
  <path d="M421 117.5 c0 -4.3 2.5 -4.8 3.5 -0.8 0.3 1.5 1.2 3.1 1.8 3.5 0.7 0.4 -0.2 0.8 -2 0.8 -3.1 0 -3.3 -0.2 -3.3 -3.5z"/>
  <path d="M415 111 c0 -1.6 0.7 -2 3 -2 2.3 0 3 0.4 3 2 0 1.6 -0.7 2 -3 2 -2.3 0 -3 -0.4 -3 -2z"/>
  <path d="M470.8 106.3 c-3.3 -0.8 -2 -3.3 1.7 -3.3 2.8 0 3.5 0.4 3.5 2 0 2 -1.4 2.3 -5.2 1.3z"/>
  <path d="M443.3 101.8 c-4.6 -1 -6.1 -3.8 -2 -3.8 5.8 0 9.7 1.3 9.7 3.1 0 2.1 -1.2 2.2 -7.7 0.7z"/>
  <path d="M421 96 c-7.4 -2.2 -14.6 -4.5 -16 -5.2 -1.4 -0.7 -2.6 -1.3 -2.7 -1.3 -0.1 0 1.3 -4.6 3.1 -10 2.6 -8.1 3.7 -10.1 5.4 -10.3 1.1 -0.2 7.4 0.6 13.9 1.8 17.5 3.1 17.3 3 17.3 4.7 0 1.6 -0.9 1.6 -15.5 -0.3 l-5 -0.6 -2.3 7.3 c-1.2 4.1 -2.2 7.7 -2.2 8 0 0.4 1.6 1 3.5 1.3 1.9 0.4 3.5 1.1 3.5 1.6 0 0.6 0.9 1 1.9 1 1.1 0 4.2 0.5 7 1.2 3.8 0.9 5.1 1.6 5.1 3 0 2.5 -1.4 2.3 -17 -2.2z"/>
  <path d="M347 90.8 c-5.9 -3.7 -15.7 -10.7 -17 -12.3 -1.1 -1.3 -0.8 -1.5 1.9 -1.5 1.7 0 3.1 -0.4 3.1 -1 0 -0.5 -1.1 -1 -2.5 -1 -2 0 -2.5 -0.5 -2.5 -2.5 0 -2.1 0.3 -2.3 2.3 -1.6 1.2 0.5 7.2 2.9 13.2 5.4 6.1 2.4 12.8 5 15 5.7 2.2 0.7 4.5 1.6 5 2 0.6 0.4 3 1.4 5.5 2.1 2.5 0.7 5.4 1.9 6.5 2.6 1.1 0.7 2.9 1.3 4 1.4 5.4 0.3 -6 1.7 -17.8 2.2 -12.3 0.6 -13.4 0.5 -16.7 -1.5z m-1 -10 c-1.9 -0.5 -3.7 -1.3 -4 -1.7 -0.3 -0.5 -1.7 -1 -3.2 -1.3 -1.9 -0.4 -2.5 -0.1 -2.1 0.9 0.3 0.7 1.1 1.3 1.9 1.3 0.8 0 1.4 0.5 1.4 1 0 0.6 2.1 1 4.8 0.9 l4.7 -0.1 -3.5 -1z"/>
  <path d="M473 89.5 c0 -3 0.3 -3 4.1 -0.8 3.8 2.3 3.7 3.3 -0.6 3.3 -3.1 0 -3.5 -0.3 -3.5 -2.5z"/>
  <path d="M322 69.5 c-0.6 -0.8 -1 -1.9 -0.8 -2.4 0.4 -1.2 6.8 1.4 6.8 2.9 0 1.5 -4.6 1.2 -6 -0.5z"/>
 </g>
 <g fill="#37205e">
  <path d="M420 137 c0 -1.6 0.7 -2 3.5 -2 4 0 4.9 2.4 1.3 3.4 -3.8 1 -4.8 0.7 -4.8 -1.4z"/>
  <path d="M427.6 129.3 c-0.3 -2.1 -0.6 -4.9 -0.6 -6.2 0 -2.3 0.1 -2.3 1.9 -0.7 2.1 1.9 3.1 5.8 2.4 8.7 -0.9 3.2 -3 2.1 -3.7 -1.8z"/>
  <path d="M412.7 125 c0.3 -1 1.1 -2.5 1.9 -3.1 1 -0.8 1.2 -2.5 0.8 -6.4 -0.6 -4.9 -0.5 -5.2 1.7 -5.8 4.6 -1.3 6.9 -0.8 6.9 1.3 0 1.5 -0.7 2 -2.5 2 -2.4 0 -2.5 0.3 -2.5 5.8 0 6.2 -1.1 8.2 -4.6 8.2 -1.7 0 -2.1 -0.4 -1.7 -2z"/>
  <path d="M471.8 106.3 c-3.6 -0.9 -2 -3.3 2.2 -3.3 3.3 0 4 0.3 4 2 0 2 -2 2.4 -6.2 1.3z"/>
  <path d="M487.6 102.6 c-0.6 -4 -1 -4.6 -3.2 -4.6 -1.7 0 -2.4 -0.5 -2.4 -2 0 -1.6 -0.7 -2 -3 -2 -2.5 0 -3 -0.4 -3 -2.5 0 -1.4 0.4 -2.5 0.9 -2.5 1.9 0 15.6 10.6 17 13.2 1.8 3.1 1.5 3.6 -2.6 4.4 -3 0.6 -3.1 0.5 -3.7 -4z"/>
  <path d="M450.5 103.1 c-18.6 -4 -38.5 -9.6 -38.5 -11 0 -2.1 7 -20.6 7.9 -20.9 0.6 -0.2 5.7 0.4 11.2 1.3 5.6 0.9 11.3 1.5 12.8 1.2 3.5 -0.7 5.6 0.6 4.7 2.8 -0.6 1.6 -1.6 1.7 -7.4 1.2 -3.7 -0.4 -7.6 -0.9 -8.7 -1.2 -1.8 -0.5 -2.3 0.4 -4.6 7.5 -2.4 7.4 -2.5 8.1 -1 9 2.9 1.5 20.5 5.8 31.6 7.7 8.7 1.4 10.5 2 10.5 3.5 0 2.4 -2.4 2.2 -18.5 -1.1z"/>
  <path d="M464 85.5 c0 -0.9 -0.9 -1.5 -2.5 -1.5 -2.8 0 -7.5 -2 -7.5 -3.2 0 -0.4 -0.9 -0.8 -2 -0.8 -1.5 0 -2 -0.7 -2 -2.5 0 -2.2 0.2 -2.4 2.7 -1.4 5.2 2 18.3 9.1 18.3 10 0 0.5 -1.6 0.9 -3.5 0.9 -2.4 0 -3.5 -0.5 -3.5 -1.5z"/>
  <path d="M340 85.3 c-3.5 -1.4 -10.3 -7 -15 -12.6 -2.8 -3.3 -4.9 -6.1 -4.7 -6.3 0.3 -0.3 13.4 5 32.2 13.1 1.7 0.7 4.1 1.6 5.5 2 1.4 0.4 3.4 1.4 4.5 2.1 1.7 1.2 0.7 1.4 -8.2 1.4 -5.6 0 -10.7 0.2 -11.5 0.4 -0.7 0.3 -2 0.2 -2.8 -0.1z"/>
 </g>
 <g fill="#2e1952">
  <path d="M418.4 138 c-3.2 -1.3 -6.4 -5.9 -6.4 -9.1 0 -1.6 1.1 -4 2.6 -5.6 l2.5 -2.8 -0.4 4.7 c-0.4 3.8 0 5.1 1.9 7.4 2.2 2.5 2.6 2.6 4.9 1.4 1.4 -0.7 2.7 -2.1 3 -3.1 0.7 -2.2 -0.4 -6.9 -1.7 -6.9 -1.9 0 -3.8 -2.9 -3.8 -5.9 0 -2.1 0.5 -3.1 1.5 -3.1 0.8 0 1.5 0.6 1.5 1.3 0 0.8 1.6 3 3.5 5 2.8 2.9 3.5 4.4 3.5 7.6 0 6.7 -6.7 11.6 -12.6 9.1z"/>
  <path d="M415.4 114.5 c-0.3 -2 -0.5 -3.7 -0.3 -3.9 0.2 -0.2 2.3 -0.6 4.7 -0.9 3.7 -0.4 4.2 -0.3 4.2 1.4 0 1.4 -0.7 1.9 -2.5 1.9 -2 0 -2.5 0.5 -2.5 2.5 0 3.9 -2.8 3.1 -3.6 -1z"/>
  <path d="M472 106.3 c-7.6 -0.8 -27 -4.5 -36.2 -6.8 -11 -2.8 -14.8 -4.3 -14.8 -5.9 0 -1.4 6.1 -19.9 6.9 -20.8 0.3 -0.4 4.1 0 8.4 0.8 5.2 1 8.3 1.2 9 0.5 0.8 -0.6 5.5 1.2 14.9 5.9 19.8 9.9 34.8 20.4 34.8 24.4 0 2.3 -10.9 3.2 -23 1.9z m17 -4.3 c0 -0.5 -0.7 -1 -1.5 -1 -0.8 0 -1.5 -0.4 -1.5 -1 0 -0.5 -0.7 -1 -1.5 -1 -0.8 0 -1.5 -0.4 -1.5 -1 0 -0.5 -0.7 -1 -1.5 -1 -0.8 0 -1.5 -0.4 -1.5 -1 0 -0.5 -0.6 -1 -1.4 -1 -0.8 0 -1.6 -0.3 -1.8 -0.7 -0.1 -0.5 -3.4 -2.4 -7.1 -4.3 -3.7 -1.9 -7.6 -4.3 -8.7 -5.2 -1.1 -1 -2.8 -1.8 -4 -1.8 -1.1 0 -2.9 -0.9 -4 -2 -1.1 -1.1 -2.8 -2 -3.7 -2 -1 0 -2.4 -0.4 -3.1 -0.9 -0.8 -0.4 -2.7 -0.5 -4.4 -0.2 -2.9 0.6 -3.4 1.3 -5.9 8.8 l-2.7 8.2 3.1 0.6 c1.8 0.4 6.8 1.5 11.2 2.5 4.4 1 11.4 2.3 15.5 2.9 4.1 0.6 8.6 1.3 10 1.5 5.6 0.8 16 0.5 16 -0.4z"/>
  <path d="M325.6 72.9 c-3.2 -3.4 -5.5 -6.3 -5.3 -6.5 0.2 -0.3 3.5 1 7.3 2.7 3.8 1.7 9.2 4.2 12.1 5.5 2.8 1.3 5.8 2.5 6.5 2.5 2.8 0.3 -5 1.7 -9.8 1.8 -5.1 0.1 -5.3 0 -10.8 -6z"/>
 </g>
 <g fill="#220f44">
  <path d="M420.1 138.2 c-2.6 -0.4 -3.7 -1.3 -6.4 -5.2 -2.2 -3.2 -2.1 -5.6 0.4 -9.1 1.6 -2.3 2 -4.1 1.7 -8.2 l-0.3 -5.2 4.3 -0.3 4.2 -0.3 0 4.3 c0 3.6 0.5 4.8 2.9 6.9 7.8 6.9 3.1 18.6 -6.8 17.1z"/>
  <path d="M470.5 105.5 c-18 -2.3 -41.5 -7.4 -41.5 -8.9 0 -0.7 1.5 -5.7 3.3 -11.1 l3.4 -10 5.9 -0.7 c5.5 -0.6 6.5 -0.3 14.2 3.3 4.5 2.2 12.1 6.2 16.9 8.9 4.7 2.8 8.7 5 8.9 5 0.7 0 4.9 3.5 9.4 7.9 4.3 4.2 4.4 4.4 2.3 5.2 -4.4 1.6 -11.9 1.7 -22.8 0.4z"/>
  <path d="M323.5 70 c-1.9 -2 -2.4 -3 -1.4 -3 0.8 0 2 0.5 2.5 1 0.6 0.6 3.3 1.9 6 3 l4.9 1.9 -4.6 0.1 c-3.8 0 -5 -0.5 -7.4 -3z"/>
 </g>
</svg>